<svg xmlns="http://www.w3.org/2000/svg" viewBox="0 0 750 500"><g id="freepik--Floor--inject-43"><path d="M724.57,448c0,.15-159.26.27-355.68.27S13.18,448.1,13.18,448s159.23-.27,355.71-.27S724.57,447.8,724.57,448Z" style="fill:#263238"></path></g><g id="freepik--speech-bubble--inject-43"><path d="M414.56,180.35,418.41,169a38.49,38.49,0,1,1,8.46,10.89v0Z" style="fill:#fff"></path><path d="M414.56,180.35h.78l2.34-.06,9.2-.24h.18l-.1-.15h0l-.15.12a38.48,38.48,0,0,0,16.71,8.83,37.47,37.47,0,0,0,5.9,1,42.86,42.86,0,0,0,6.4-.05,38.07,38.07,0,0,0,13.46-3.66,38.51,38.51,0,0,0,21.27-41.38,37.8,37.8,0,0,0-7.41-16.87c-.49-.62-1-1.26-1.48-1.87L480,124.23l-.82-.86-.88-.77-1.78-1.54c-.61-.49-1.26-.91-1.89-1.37a17.53,17.53,0,0,0-1.93-1.29,34.5,34.5,0,0,0-4.07-2.16,38.58,38.58,0,0,0-45.6,10.16,38.52,38.52,0,0,0-6.94,12.16,41.9,41.9,0,0,0-1.63,6.21,52.34,52.34,0,0,0-.54,6,38.29,38.29,0,0,0,4.39,18.35V169l-2.82,8.47c-.31.95-.55,1.66-.71,2.16s-.23.72-.23.72.1-.26.27-.75.43-1.22.76-2.17c.67-1.91,1.65-4.72,2.91-8.37l0,0,0,0a38.41,38.41,0,0,1-4.26-18.26,49.74,49.74,0,0,1,.57-5.91,41.83,41.83,0,0,1,1.63-6.15,38.42,38.42,0,0,1,34.88-25.54,38.71,38.71,0,0,1,17.14,3.53,33.64,33.64,0,0,1,4,2.13,17.07,17.07,0,0,1,1.9,1.28c.62.45,1.27.87,1.87,1.35l1.76,1.52.87.77.81.84c.53.57,1.07,1.13,1.61,1.7s1,1.23,1.46,1.84a38.23,38.23,0,0,1,6.36,34,38.72,38.72,0,0,1-7.93,14.36,38.24,38.24,0,0,1-12.09,9.22,37.73,37.73,0,0,1-13.32,3.66,42.24,42.24,0,0,1-6.35.07,37,37,0,0,1-5.85-.92,38.46,38.46,0,0,1-16.64-8.67l-.54-.48.39.6v0l.08-.15-9.13.37-2.37.1Z" style="fill:#263238"></path><path d="M467.51,147.39a9.18,9.18,0,0,0-2.23-5,8.8,8.8,0,0,0-4.52-2.93,7.12,7.12,0,0,0-7.91,3.47,7.11,7.11,0,0,0-2.06-2.34,7.27,7.27,0,0,0-5.52-1.22,8.85,8.85,0,0,0-4.66,2.72,9.13,9.13,0,0,0-2.46,4.92,11.12,11.12,0,0,0,1.22,6.89,15.76,15.76,0,0,0,5.31,5.21c3.5,2.23,8.11,5,8.11,5s4-2.86,7.62-4.91a15.77,15.77,0,0,0,5.55-5A11.16,11.16,0,0,0,467.51,147.39Z" style="fill:#5EA7E7"></path></g><g id="freepik--character-2--inject-43"><path d="M630.08,463.41l44.86-2.91,36.15,7.93a4.6,4.6,0,0,0,5.54-3.82h0a4.59,4.59,0,0,0-1.35-4c-6.87-6.58-32.23-30.66-35.5-30.26-3.79.46-47.53-.08-47.53-.08Z" style="fill:#263238"></path><path d="M716.63,464.61l-39.88-34.13,1.9-.08a7,7,0,0,1,4.57,1.46c3.47,2.71,12.89,10.41,32,28.62a4.59,4.59,0,0,1,1.36,4.13Z" style="fill:#455a64"></path><g style="opacity:0.6000000000000001"><path d="M662.65,440.31a2.79,2.79,0,0,0,3.67.61,2.68,2.68,0,0,0,.63-3.63,2.94,2.94,0,0,0-3.89-.63c-1,.9-1.29,3-.24,3.85" style="fill:#fff"></path></g><path d="M696.58,455.17c.13.25-2.18,1.36-3.33,4.08s-.5,5.15-.78,5.22c-.1,0-.48-.52-.67-1.56a7.23,7.23,0,0,1,.54-4.06,7.14,7.14,0,0,1,2.63-3.13C695.87,455.16,696.53,455.06,696.58,455.17Z" style="fill:#fff"></path><path d="M702.72,458.12c.21.2-1.19,1.7-1.76,4.05s-.11,4.33-.38,4.42-1.27-2-.58-4.66S702.59,457.89,702.72,458.12Z" style="fill:#fff"></path><path d="M688.62,449.53c.22.21-2,2.51-3.15,6.09s-1,6.7-1.27,6.72-1-3.22.34-7S688.48,449.32,688.62,449.53Z" style="fill:#fff"></path><path d="M674.9,449.28c.28.11-.65,2.63-.64,5.87s.91,5.76.63,5.87-1.63-2.4-1.61-5.88S674.69,449.15,674.9,449.28Z" style="fill:#fff"></path><path d="M653.76,390.17l29,33.32s43.62-18.3,49.59-12.67l-62.6,58.6-47.36-50.08Z" style="fill:#263238"></path><path d="M669.77,469.42l-4.58-5.24L726.92,410s3.93-1.4,5.45.86Z" style="fill:#455a64"></path><path d="M683.5,422.22c.27.32-1.13,1.89-1.71,4.28s-.18,4.43-.58,4.57-1.59-2.05-.83-4.93S683.3,421.88,683.5,422.22Z" style="fill:#fff"></path><path d="M692.6,418.79c.35.24-.49,2-.31,4.26s1.15,3.91.83,4.18-2.13-1.27-2.29-4.09S692.33,418.51,692.6,418.79Z" style="fill:#fff"></path><path d="M703.69,423.16c-.22.33-2.07-.8-2.85-3.21s0-4.41.39-4.28.32,1.86,1,3.82S704,422.85,703.69,423.16Z" style="fill:#fff"></path><path d="M676,415.36c.13.4-1.66,1.29-3.28,3s-2.46,3.54-2.86,3.42-.13-2.41,1.8-4.43S676,415,676,415.36Z" style="fill:#fff"></path><path d="M447.07,301.27c.19,3.9,1.08,24.85,1.08,24.85L499.54,303l6.92,20.36s-83.67,82.69-88.52,38.68c-.17-1.51-4.18-50.92-4.18-50.92Z" style="fill:#ae7461"></path><path d="M554.42,300.06c-.57-1.09-2.31-1.53-4.66-.9s-6.16,2.54-7.5,2.93-9,2.92-9,2.92l16.88-9.39s5.64-2.25,4.31-4.66-5.2.17-7,.65-13.32,6.71-16.79,7.08-1.88-.54-1.88-.54l9.56-4.71c4.22-2.08,6.45-4.38,6.39-6.48s-9.84,2.72-9.84,2.72L521.23,296l-4.74.07,3.47-4.22s5.37-1.2,6.94-5.22-1.13-4.44-1.13-4.44l-19.62,10.9c-3.11,2.26-7.8,13.8-7.8,13.8l6.84,18.88,2-.86,12.82-2.2,16.08-4.2,13-5.47s1.19-1-.16-2.59-8.42,1.46-8.42,1.46l-5.49,1.4s-4.48-.18-4.19-.6,7.56-3.06,7.56-3.06l15.45-6.54A2.35,2.35,0,0,0,554.42,300.06Z" style="fill:#ae7461"></path><path d="M513.24,315.47c-.13-.09.69-1.37,1.82-3.51s2.49-5.36,1.65-8.94a7,7,0,0,0-2.19-3.81l-.38-.31.34-.41c1.54-1.82,2.82-3.7,3.78-4.86s1.62-1.84,1.7-1.74a14.57,14.57,0,0,1-1.26,2.1,62.24,62.24,0,0,1-3.6,5.2l0-.73a7.62,7.62,0,0,1,2.57,4.33,10.79,10.79,0,0,1-.19,5.53,16.37,16.37,0,0,1-1.81,4A11.53,11.53,0,0,1,513.24,315.47Z" style="fill:#6f4439"></path><path d="M415.53,351.79s91.32-59.11,106.36-68c12-7.14,28-5.23,38.49,4.17C592.49,316.62,676,412.52,676,412.52l-40.26,33.87L538,349.67l-81.3,63.7-47.06-36.69Z" style="fill:#263238"></path><path d="M640,425.55s12,37.22,11.52,38.06c-2.45,4.1-139.86,1.8-139.86,1.8s-115.58,5-123.32,1.18-33.57-30.17-33.57-30.17l66.94-64.67,27.79,29.91,37.61,11.45Z" style="fill:#263238"></path><path d="M515.63,464.15a7.08,7.08,0,0,0,1.21-1c.37-.35.82-.8,1.3-1.35s1.06-1.15,1.61-1.9a39.59,39.59,0,0,0,3.59-5.37,45.56,45.56,0,0,0,3.2-7.26,45,45,0,0,0,1.79-7.72,40,40,0,0,0,.35-6.46c0-.93-.09-1.76-.15-2.48a17.11,17.11,0,0,0-.23-1.86,7.19,7.19,0,0,0-.33-1.57c-.14,0,.22,2.27.21,5.91a45.82,45.82,0,0,1-.5,6.36,48.87,48.87,0,0,1-1.81,7.6,49.54,49.54,0,0,1-3.1,7.16,46,46,0,0,1-3.42,5.39C517.17,462.47,515.53,464.05,515.63,464.15Z" style="fill:#455a64"></path><path d="M432.24,400.25a12.47,12.47,0,0,0,2,.36c1.29.19,3.15.48,5.44.86,4.59.75,10.9,2,17.75,3.84s12.91,4,17.26,5.64c2.17.83,3.92,1.52,5.12,2a10.23,10.23,0,0,0,1.91.69,11.19,11.19,0,0,0-1.8-.94c-1.17-.57-2.89-1.33-5.05-2.23A146.41,146.41,0,0,0,439.75,401c-2.31-.32-4.19-.53-5.49-.63A10.26,10.26,0,0,0,432.24,400.25Z" style="fill:#455a64"></path><path d="M279.57,284l-13.64,8.91,3.32,77.72,4.43,85.57-42.34,8.59s-2.06,2.8,2.11,3.11l58.31-.37a5.71,5.71,0,0,0,5.69-5.67l6.48-87.5-5-82.56Z" style="fill:#ae7461"></path><path d="M418.23,232.09s19.86,2.8,26.12,39.81c1.92,11.37,4.35,40.4,4.35,40.4L413,317.86Z" style="fill:#5EA7E7"></path><path d="M372.23,215.88l45.69,16.21L420,298.15l3.49,41.42,10.87.71s-6.81,52.05-19.17,70.47-52.51,25.12-62.6,28.58c0,0-31.25-47.92-41.53-66.62s-16.35-107.79-16.35-107.79l-2.78-38.29L307,223.82l27.22-6Z" style="fill:#5EA7E7"></path><path d="M264.28,263.47s5.91-33,27.62-36.84c9.41-1.67,9,74.34,9,74.34l-44.26-1.69Z" style="fill:#5EA7E7"></path><path d="M339.53,344.28a3.46,3.46,0,0,0,.62.47L342,346c.8.54,1.8,1.16,3,1.83s2.53,1.49,4.07,2.26,3.21,1.67,5.06,2.49,3.84,1.69,5.95,2.56a114.62,114.62,0,0,0,28.72,7.22c2.27.23,4.42.48,6.45.56s3.91.18,5.64.19,3.28,0,4.65-.06,2.55-.11,3.51-.19l2.21-.2a2.61,2.61,0,0,0,.76-.12,3.53,3.53,0,0,0-.77,0l-2.22.06c-1,0-2.13.09-3.5.07s-2.92.05-4.63,0-3.6-.11-5.61-.28-4.16-.38-6.41-.62a121.25,121.25,0,0,1-28.56-7.18c-2.1-.85-4.12-1.63-5.94-2.48s-3.54-1.64-5.08-2.41-2.9-1.51-4.1-2.15-2.23-1.23-3.05-1.72l-1.92-1.11A3.38,3.38,0,0,0,339.53,344.28Z" style="fill:#263238"></path><path d="M346.52,366.12a6.13,6.13,0,0,0,1.39.65c.91.38,2.23.89,3.88,1.49,3.29,1.22,7.87,2.8,13,4.38s9.79,2.87,13.19,3.73c1.7.43,3.08.75,4,1a6.17,6.17,0,0,0,1.51.24,7.36,7.36,0,0,0-1.44-.51l-4-1.18c-3.36-1-8-2.34-13.11-3.91s-9.7-3.09-13-4.18L348,366.51A7,7,0,0,0,346.52,366.12Z" style="fill:#263238"></path><path d="M427.09,258.93c-.2,0-2.54,17.61-5.23,39.37s-4.72,39.45-4.52,39.47,2.53-17.6,5.23-39.38S427.28,259,427.09,258.93Z" style="fill:#263238"></path><path d="M295.73,253.31a3.54,3.54,0,0,0-.08.85c0,.63,0,1.43-.08,2.42-.06,2.11-.08,5.16,0,8.92.09,7.54.55,17.94,1.55,29.39s2.32,21.78,3.4,29.23c.54,3.73,1,6.74,1.38,8.81.17,1,.31,1.77.42,2.39a3.65,3.65,0,0,0,.2.83,4.48,4.48,0,0,0-.06-.85c-.07-.63-.17-1.42-.29-2.41-.28-2.18-.67-5.17-1.15-8.84-1-7.46-2.19-17.78-3.19-29.22s-1.54-21.82-1.75-29.34c-.12-3.76-.18-6.8-.2-8.91,0-1,0-1.79-.06-2.42A4.8,4.8,0,0,0,295.73,253.31Z" style="fill:#263238"></path><path d="M297.83,154.16a8.7,8.7,0,0,1-6.57-16,9,9,0,0,1,5.11-16.4,10.82,10.82,0,0,1,14.53-11.58,12.17,12.17,0,0,1,14.71-2.91,8.66,8.66,0,0,1,10.09,13.13" style="fill:#263238"></path><path d="M329,115.38l-1.88.33a36.91,36.91,0,0,0-30.27,39.87c1.71,17.81,3.83,37.46,5.63,46.86,3.71,19.46,23.76,19,23.76,19l.69,3.76a24.4,24.4,0,0,0,28.59,19.5h0c12.84-2.47,20-13.86,18.09-26.8l-11.14-66.26C360.56,131.1,349.45,113,329,115.38Z" style="fill:#ae7461"></path><path d="M326,221.46a48,48,0,0,0,24.22-12s-3.51,15.1-23.28,16.82Z" style="fill:#6f4439"></path><path d="M304.55,173.05a2.83,2.83,0,0,0,3.19,2.33,2.7,2.7,0,0,0,2.42-3A2.84,2.84,0,0,0,307,170,2.71,2.71,0,0,0,304.55,173.05Z" style="fill:#263238"></path><path d="M302.69,164.38c.41.3,2.24-1.64,5.24-2.17s5.46.59,5.72.16c.13-.19-.33-.78-1.42-1.31a7.73,7.73,0,0,0-4.66-.57,7.49,7.49,0,0,0-4.09,2.17C302.69,163.53,302.49,164.24,302.69,164.38Z" style="fill:#263238"></path><path d="M330.46,170.12a2.82,2.82,0,0,0,3.18,2.33,2.71,2.71,0,0,0,2.43-3,2.83,2.83,0,0,0-3.19-2.33A2.7,2.7,0,0,0,330.46,170.12Z" style="fill:#263238"></path><path d="M332.25,159.69c.41.3,2.25-1.64,5.24-2.16s5.46.58,5.72.15c.13-.19-.33-.78-1.42-1.31a7.8,7.8,0,0,0-4.66-.57A7.49,7.49,0,0,0,333,158C332.25,158.84,332.05,159.55,332.25,159.69Z" style="fill:#263238"></path><path d="M325.33,183.85c0-.17-1.93-.16-5,0-.78.06-1.53,0-1.75-.47a4,4,0,0,1,.1-2.36l1.23-6.23c1.66-8.85,2.72-16.08,2.37-16.14s-2,7.06-3.66,15.92c-.4,2.18-.77,4.26-1.13,6.24a4.51,4.51,0,0,0,.14,3.08,1.94,1.94,0,0,0,1.46.89,4.73,4.73,0,0,0,1.33-.05C323.47,184.34,325.35,184,325.33,183.85Z" style="fill:#263238"></path><path d="M327.6,148.62c.53.69,2.95-.59,6.09-1.26s5.9-.61,6.05-1.46c.06-.39-.62-1-1.87-1.38a9.59,9.59,0,0,0-4.92-.15,9.24,9.24,0,0,0-4.33,2.22C327.69,147.48,327.36,148.29,327.6,148.62Z" style="fill:#263238"></path><path d="M300.35,152c.75.57,3.1-.58,6.06-1.14s5.58-.52,6-1.33c.19-.4-.32-1-1.54-1.46a9.88,9.88,0,0,0-5.14-.23,9.78,9.78,0,0,0-4.61,2.23C300.23,151,300,151.76,300.35,152Z" style="fill:#263238"></path><path d="M297.08,146.3s3-13.13,8.35-17c6.52-4.72,11,2.56,17.44-.55s12.67-7.63,20.55-3.61c8.62,4.39,5.78,9.06,7.79,17.63,8.15,34.74,16.33,43.52,15.21,26.67-.12-1.84,4.64-4.18,4-12-.81-10.09-2.57-22.2-6-28.85-2.92-5.6-7-9.09-13.9-12.53-10.85-5.43-24-3.24-32.8-.75S293.55,131.15,297.08,146.3Z" style="fill:#263238"></path><path d="M365.08,169.1a5.38,5.38,0,0,1,4.81-6.12c3.7-.3,8.11,1.05,9.21,8.6,1.95,13.41-11.92,12.6-12,12.22S365.85,174.72,365.08,169.1Z" style="fill:#ae7461"></path><path d="M369.29,178.33c0-.05.26.13.68.26a2.38,2.38,0,0,0,1.75-.22c1.34-.73,2.21-3.15,1.92-5.58a7.72,7.72,0,0,0-1.14-3.24,2.71,2.71,0,0,0-2-1.54,1.2,1.2,0,0,0-1.28.84c-.13.4,0,.65-.07.69s-.32-.18-.29-.75a1.43,1.43,0,0,1,.4-.92,1.78,1.78,0,0,1,1.24-.53,3.33,3.33,0,0,1,2.75,1.72,8.13,8.13,0,0,1,1.35,3.62c.31,2.72-.71,5.45-2.57,6.29a2.58,2.58,0,0,1-2.19,0C369.36,178.65,369.25,178.36,369.29,178.33Z" style="fill:#6f4439"></path><path d="M360.22,143.32c-1.52,1.49-3.14,3-5.19,3.61s-4.64-.2-5.36-2.2c-.33-.9-.29-2-1-2.63s-2.18-.21-3.27.1c-3.81,1.1-9.1-2.37-10.76-6a3.54,3.54,0,0,1-4.48,1.8,12.67,12.67,0,0,1-3.72-2.29c-1.41-1.13-3.26-2-5-1.47-1,.31-1.78,1.07-2.79,1.15-1.78.16-3-1.74-3.57-3.43s-1.14-3.68-2.79-4.36-3.23.19-4.8.72-3.71.51-4.41-1a3.22,3.22,0,0,1,.17-2.52,8.77,8.77,0,0,1,9.61-5.09,11.89,11.89,0,0,1,21.1-6.1,12.07,12.07,0,0,1,19.76.95,8.75,8.75,0,0,1,11.94,10.8c2.64.94,5.12,2.95,5.66,5.71s-1.66,6-4.45,5.72a4.85,4.85,0,0,1-7.4,6.23" style="fill:#263238"></path><path d="M312.56,123.85a.68.68,0,0,0,0,.25c0,.15.1.39.22.69a8.49,8.49,0,0,0,1.42,2.4,9.63,9.63,0,0,0,3.52,2.62,9,9,0,0,0,5.74.59l-.28-.26a4.94,4.94,0,0,0,.92,3.64,14.19,14.19,0,0,0,2.87,2.87,10.13,10.13,0,0,0,1.77,1.26,4.66,4.66,0,0,0,2.25.41,4.93,4.93,0,0,0,4-2.3l-.53-.05a10.14,10.14,0,0,0,5.48,6.16,7.37,7.37,0,0,0,4.63.65,13.41,13.41,0,0,0,4.15-1.71l-.39-.09a10.72,10.72,0,0,0,3.89,3.55,5.68,5.68,0,0,0,4.87.44,7.46,7.46,0,0,0,4.63-6.76l-.27.2a7,7,0,0,0,4.7-.15,7.54,7.54,0,0,0,2.94-2,6.49,6.49,0,0,0,1.2-1.9,2.77,2.77,0,0,0,.21-.75,7.82,7.82,0,0,1-1.58,2.49,7.35,7.35,0,0,1-2.89,1.84,6.62,6.62,0,0,1-4.45.06l-.27-.09v.29a7.06,7.06,0,0,1-4.41,6.28,5.15,5.15,0,0,1-4.43-.45,10.23,10.23,0,0,1-3.66-3.37l-.15-.23-.23.13a12.82,12.82,0,0,1-4,1.64,6.82,6.82,0,0,1-4.28-.62,9.59,9.59,0,0,1-5.17-5.8l-.2-.62-.32.56a4.4,4.4,0,0,1-3.55,2,4.22,4.22,0,0,1-2-.35,10.54,10.54,0,0,1-1.66-1.18,13.71,13.71,0,0,1-2.79-2.74,4.43,4.43,0,0,1-.88-3.28l.05-.34-.33.08a8.72,8.72,0,0,1-5.49-.48,9.72,9.72,0,0,1-3.47-2.46A10.51,10.51,0,0,1,312.56,123.85Z" style="fill:#455a64"></path><path d="M326.45,193.5c0-.51,3.39-.41,5.89-3.24s2.25-6.47,2.73-6.48c.21,0,.63.82.62,2.36a8.39,8.39,0,0,1-2.08,5.41,7.34,7.34,0,0,1-4.93,2.5C327.25,194.14,326.42,193.73,326.45,193.5Z" style="fill:#263238"></path></g><g id="freepik--character-3--inject-43"><path d="M588.24,370.74c-.2.47-6.07,17.27-6.07,17.27l25,8.18,5.94-20.1Z" style="fill:#875244"></path><path d="M611.75,383.18l.29-2.07s30-5.22,31.34-12.69l-54.64-12.15-3.7,21.3C594.14,375,603.23,376.7,611.75,383.18Z" style="fill:#455a64"></path><path d="M588.74,356.27l-.89,5.12,53.36,10s2-1.49,2.17-3Z" style="fill:#e0e0e0"></path><path d="M612.93,373.37c-.07,0-.29.41-.42,1.19a7.13,7.13,0,0,0,.19,3,6,6,0,0,0,1.39,2.52c.5.51.89.69.93.62s-1.17-1.29-1.74-3.38A16.66,16.66,0,0,1,612.93,373.37Z" style="fill:#fff"></path><path d="M609.88,373.45c-.15-.06-.64,1.92,0,4.18s2.05,3.46,2.13,3.3-1-1.46-1.55-3.54S610.06,373.46,609.88,373.45Z" style="fill:#fff"></path><path d="M617.5,372.82c-.12-.11-1,1.36-.91,3.39s.9,3.37,1,3.25-.4-1.46-.42-3.29S617.67,372.89,617.5,372.82Z" style="fill:#fff"></path><path d="M615.26,380.14c0-.06-.74.54-1.35,1.92a14.05,14.05,0,0,0-.8,2.49c-.11.47-.22,1-.32,1.5a5.94,5.94,0,0,0-.12.86,1.28,1.28,0,0,0,.39,1,.78.78,0,0,0,1-.08,2.26,2.26,0,0,0,.52-.75,8.59,8.59,0,0,0,.54-1.48,9,9,0,0,0,.3-2.64,4.27,4.27,0,0,0-.52-2.3c-.09,0,.14.9.09,2.32a9.37,9.37,0,0,1-.4,2.44,8.38,8.38,0,0,1-.53,1.35c-.19.43-.54.74-.67.57s-.17-.64,0-1.17.18-1,.27-1.48a18,18,0,0,1,.65-2.44C614.78,380.9,615.33,380.21,615.26,380.14Z" style="fill:#fff"></path><path d="M615.6,380.41s-.06-.13-.25-.29l-.14-.13v.24a8.64,8.64,0,0,0,.48,2.64,10.11,10.11,0,0,0,.85,1.86,7.71,7.71,0,0,0,.63.94,1.72,1.72,0,0,0,.47.46.81.81,0,0,0,.79,0,1,1,0,0,0,.46-1,3,3,0,0,0-.21-.79,8,8,0,0,0-.59-1.28,7.52,7.52,0,0,0-1.4-1.81c-.94-.87-1.68-1.11-1.71-1s.6.5,1.41,1.41a9,9,0,0,1,1.22,1.79,9.42,9.42,0,0,1,.52,1.2c.18.44.21.91.08.91-.31.2-.85-.69-1.19-1.2a10.72,10.72,0,0,1-.88-1.71,17.24,17.24,0,0,1-.74-2.44l-.15.11C615.47,380.41,615.58,380.44,615.6,380.41Z" style="fill:#fff"></path><path d="M591.84,456.88c.52-1.39,17.84-67.12,17.84-67.12l-21.12-2.7-9.07,57.71Z" style="fill:#455a64"></path><path d="M562.52,369c0,.5,1.12,18.26,1.12,18.26l26.19-2.16-2.34-20.83Z" style="fill:#875244"></path><path d="M589,371.33l-.54-2s25.6-16.46,23.95-23.87l-55.07,10,4.87,21.06C569.63,370.67,578.64,368.67,589,371.33Z" style="fill:#455a64"></path><path d="M557.35,355.48l1.17,5.07L611.59,349s1.26-2.14.83-3.6Z" style="fill:#e0e0e0"></path><path d="M586.29,361.84c-.08,0-.11.49.07,1.25a7.27,7.27,0,0,0,1.35,2.71,6,6,0,0,0,2.26,1.77c.66.28,1.09.29,1.1.21s-1.58-.73-2.92-2.43A16.94,16.94,0,0,1,586.29,361.84Z" style="fill:#fff"></path><path d="M583.51,363.09c-.16,0,.16,2,1.65,3.85s3.22,2.39,3.24,2.21-1.46-1-2.8-2.66S583.68,363,583.51,363.09Z" style="fill:#fff"></path><path d="M590.29,359.54c-.16,0-.35,1.64.47,3.49s2.15,2.76,2.21,2.6-.94-1.2-1.66-2.88S590.47,359.55,590.29,359.54Z" style="fill:#fff"></path><path d="M591.06,367.16a4.11,4.11,0,0,0-.49,2.29,14.27,14.27,0,0,0,.23,2.61c.08.49.18,1,.29,1.51a4.88,4.88,0,0,0,.23.84,1.24,1.24,0,0,0,.74.76.78.78,0,0,0,.92-.48,2.28,2.28,0,0,0,.19-.9,8.11,8.11,0,0,0-.07-1.57,9,9,0,0,0-.75-2.55,4.4,4.4,0,0,0-1.38-1.92c-.07.08.48.78,1,2.11a9.91,9.91,0,0,1,.58,2.41,8.57,8.57,0,0,1,0,1.44c0,.48-.21.9-.4.79s-.4-.52-.51-1.06-.22-1-.32-1.47a18,18,0,0,1-.35-2.49C590.92,368.05,591.16,367.2,591.06,367.16Z" style="fill:#fff"></path><path d="M591.48,367.28s-.1-.09-.33-.17l-.18-.06.09.22a8.37,8.37,0,0,0,1.47,2.24,9.67,9.67,0,0,0,1.5,1.39,9.14,9.14,0,0,0,1,.62,1.77,1.77,0,0,0,.61.24.82.82,0,0,0,.74-.27,1,1,0,0,0,0-1.12,3.33,3.33,0,0,0-.5-.65,9,9,0,0,0-1-1,7.6,7.6,0,0,0-2-1.12c-1.2-.43-2-.37-2-.29s.74.22,1.84.75a8.48,8.48,0,0,1,1.82,1.17,10,10,0,0,1,1,.91c.33.34.55.75.42.81-.21.3-1-.31-1.56-.65a11,11,0,0,1-1.47-1.23,18.54,18.54,0,0,1-1.64-2l-.08.16C591.36,367.33,591.48,367.32,591.48,367.28Z" style="fill:#fff"></path><path d="M473,413.73s18.89-5.56,31.81-5.67S536.7,420.2,536.7,420.2L561.9,426l.45-45.36L592,379.53s3.39,54.4,2.08,67.61c-2.1,21.21-14.68,21.32-32.24,21.48s-88.29.51-88.29.51Z" style="fill:#455a64"></path><path d="M565.26,435.65c-.19,0-.75-2.11-1.79-4.61s-2.13-4.43-2-4.54,1.54,1.7,2.6,4.28S565.43,435.62,565.26,435.65Z" style="fill:#263238"></path><path d="M594.31,442c-.15,0-.79-14-1.44-31.21s-1-31.22-.9-31.23.79,14,1.44,31.21S594.46,442,594.31,442Z" style="fill:#263238"></path><path d="M361.52,398.07c.4-3.26,5-14.95,7.58-19.43s19-4.41,21.34-.07.71,6.19.71,6.19l-1.61.61s.28,4.71-2.82,3.67c0,0-3,4.11-4.85,3.34l-5.06,5.48.11,25.87s-16.52-15.84-16.57-16.25S361.52,398.07,361.52,398.07Z" style="fill:#875244"></path><path d="M408.09,385.42a33.38,33.38,0,0,0-13.88,11.93c-5.41,8.15-17.29,26.38-17.29,26.38l-3.45-19.64L362,396l-.62,2c-1.51,6.94-3.28,16.92-4.34,25.22s-1.8,16.71-2.23,21.59c-.35,4,9.75,11,16.69,12s17.42-9.93,17.42-9.93l22-27Z" style="fill:#875244"></path><path d="M378.15,420.82,397,438.44l3.5-6.63,2-43.75s-5.59,4.29-8.32,8.4S378.15,420.82,378.15,420.82Z" style="fill:#ebebeb"></path><path d="M377.51,438.76c-.15,0-.08-3.34-.25-7.44s-.52-7.42-.36-7.44a8.1,8.1,0,0,1,.43,2.15c.19,1.34.38,3.2.47,5.27s.05,3.93,0,5.28A8,8,0,0,1,377.51,438.76Z" style="fill:#56352e"></path><path d="M462.49,319.62c-1.46-5.14-7-8.94-12.53-8.64a11.54,11.54,0,0,0-5.27-10.83,12.71,12.71,0,0,0-12.48-.44c-1.6-8.53-9.22-15.7-18.15-17.1s-18.54,3.08-22.91,10.68a17,17,0,0,0-15,7.14,15.43,15.43,0,0,0-.56,16.05c1,1.76,2.39,3.34,3.11,5.23,1.17,3.06,2.31,5.26,2,8.5s-.4,15.7,2.12,17.9l55.82,11.2,6.91-11.72a10,10,0,0,0,11.74-2.88,9,9,0,0,0-1-11.56A12,12,0,0,0,462.49,319.62Z" style="fill:#263238"></path><path d="M438.54,312.44,416,303.71c-11.53-3.38-26.32,6.48-29.14,18.49-3.13,13.33-6.26,24.89-6.43,35.22-.33,20.79,18.55,25.26,18.55,25.26l-1.87,15.7,38-10.57,8.53-41.29,6.17-13.16A18.48,18.48,0,0,0,438.54,312.44Z" style="fill:#875244"></path><path d="M388.51,341.51a2.63,2.63,0,0,0,2,3.06,2.47,2.47,0,0,0,3-1.88,2.63,2.63,0,0,0-2-3.05A2.45,2.45,0,0,0,388.51,341.51Z" style="fill:#263238"></path><path d="M388.33,334c.24.35,2.12-.72,4.55-.34s4,1.92,4.33,1.65-.06-.72-.76-1.43a6.18,6.18,0,0,0-3.42-1.71,5.72,5.72,0,0,0-3.67.66C388.54,333.36,388.21,333.88,388.33,334Z" style="fill:#263238"></path><path d="M410.43,345.59a2.62,2.62,0,0,0,2,3.05,2.46,2.46,0,0,0,3-1.88,2.63,2.63,0,0,0-2-3.05A2.46,2.46,0,0,0,410.43,345.59Z" style="fill:#263238"></path><path d="M413.29,337.77c.24.35,2.12-.71,4.54-.34s4,1.93,4.34,1.66c.15-.12-.07-.72-.76-1.44A6.2,6.2,0,0,0,418,336a5.76,5.76,0,0,0-3.66.65C413.49,337.09,413.17,337.61,413.29,337.77Z" style="fill:#263238"></path><path d="M402.11,355.5a22.32,22.32,0,0,0-4.29-1.46c-.69-.19-1.32-.42-1.38-.82s.28-1,.72-1.54l2.7-3.81c1-1.38,6.15-9.27,6.32-10.09-.28-.15-3.58,4.13-7.36,9.56l-2.63,3.85a2.62,2.62,0,0,0-.7,2.09,1.75,1.75,0,0,0,1,1,5.58,5.58,0,0,0,1.16.36A22.69,22.69,0,0,0,402.11,355.5Z" style="fill:#263238"></path><path d="M398.79,382.68a49.48,49.48,0,0,0,27.58-2.53s-8.75,13.68-28.11,8.28Z" style="fill:#56352e"></path><path d="M413.77,330.72c.17.92,2.61.69,5.4,1.4s5,1.95,5.45,1.17c.19-.37-.14-1.24-1-2.19a7.86,7.86,0,0,0-3.91-2.29,6.92,6.92,0,0,0-4.35.33C414.28,329.63,413.7,330.29,413.77,330.72Z" style="fill:#263238"></path><path d="M389,325.21c.31.86,2.44.59,4.77,1.15s4.17,1.6,4.81.95c.29-.33.17-1.15-.52-2.07a6.21,6.21,0,0,0-3.57-2.2,6.15,6.15,0,0,0-4.15.51C389.36,324.1,388.9,324.79,389,325.21Z" style="fill:#263238"></path><path d="M442.79,347.43s13.51-2.34,10.93,9.93-14,7.1-14,6.75S442.79,347.43,442.79,347.43Z" style="fill:#875244"></path><path d="M444.37,360.26c.06,0,.18.2.49.44a2,2,0,0,0,1.55.37c1.36-.2,2.85-2,3.37-4.22a7.35,7.35,0,0,0,.07-3.19,2.55,2.55,0,0,0-1.22-2,1.06,1.06,0,0,0-1.35.32c-.23.31-.21.57-.28.57s-.21-.26,0-.74a1.38,1.38,0,0,1,.63-.67,1.55,1.55,0,0,1,1.22-.06,3,3,0,0,1,1.77,2.38,7.59,7.59,0,0,1,0,3.58c-.6,2.45-2.31,4.49-4.14,4.63a2.27,2.27,0,0,1-1.84-.74C444.33,360.56,444.32,360.27,444.37,360.26Z" style="fill:#56352e"></path><path d="M402.6,361.72c0,.1.48.48,1.49.66a5.93,5.93,0,0,0,6.49-3.63c.36-1,.32-1.6.21-1.62s-.32.55-.79,1.34a6.52,6.52,0,0,1-5.85,3.28C403.23,361.74,402.65,361.59,402.6,361.72Z" style="fill:#263238"></path><path d="M387.37,306.9A10.78,10.78,0,0,0,406.88,315,14.27,14.27,0,0,0,430,319.85c-1.06,3.7-1.29,7.86.57,11.23s6.32,5.45,9.76,3.73a15.1,15.1,0,0,0-4.3,13.07c.39,2.38,1.94,5.05,4.35,5s3.65-2.43,4.6-4.49c3.81-8.34,7.71-17.57,5.22-26.39-2.16-7.65-8.88-13.34-16.26-16.29s-15.45-3.57-23.37-4.16" style="fill:#263238"></path><path d="M356.4,446.8s-15.84-6.35-19.36-7.94-10.5,2.25-10.73,4.15a3.29,3.29,0,0,0,1.28,3s-1,4,.92,5.52c0,0-1.46,4.61,1.06,6.2a5.7,5.7,0,0,0,1.43,6.2c2.9,2.95,17.68,2.55,21.06,2.25a87.5,87.5,0,0,1,10.9.06c0,.12,3.09-18.68,3.09-18.68Z" style="fill:#875244"></path><path d="M394.39,433.7c17.25,20.39,34.24,31.05,55.28,34.58,11.88,2,45.57,2.42,45.57,2.42,7-23.37,7-43.06-1.59-61.59l-34.4-1.18S443,385.84,435.74,384.56c0,0-39,10.85-39.83,15.2C393.3,413.94,394.39,433.7,394.39,433.7Z" style="fill:#ebebeb"></path><path d="M430.43,397.74c-9.37-11.68-28.33-6.66-30.54,8.15,0,.18-.05.35-.08.53-2.33,17.57-3.45,39.15-3.45,39.15L356.77,447,355,466s51.72,9.67,61.63,3.37,9.19-22,11.88-36.15c2.36-12.47,4.44-20.88,4.73-28.93C433.3,402.14,432.15,399.89,430.43,397.74Z" style="fill:#875244"></path><path d="M464.82,439.12a30.6,30.6,0,0,1-.54-4.06c-.28-2.52-.7-6-1.3-9.8s-1.26-7.24-1.76-9.72a27.56,27.56,0,0,1-.72-4,21.92,21.92,0,0,1,1.19,3.94c.62,2.46,1.36,5.89,2,9.72s.94,7.32,1.1,9.85A21.44,21.44,0,0,1,464.82,439.12Z" style="fill:#263238"></path><path d="M431.27,397.6c-9.37-11.68-29.29-6.75-31.5,8.06l-.49,2.82c-2.33,17.57-3.07,25.23-3.07,25.23l34.33,5.54c2.36-12.46,3.81-22.45,4.1-30.5C434.71,406.59,433,399.75,431.27,397.6Z" style="fill:#ebebeb"></path><path d="M419.72,391.26h-1.11a20.8,20.8,0,0,0-3.17.11,14.66,14.66,0,0,0-2.28.34A16.77,16.77,0,0,0,405,396a17,17,0,0,0-2.43,3,20.21,20.21,0,0,0-1.82,3.8,19.32,19.32,0,0,0-.59,2.14c-.12.75-.25,1.51-.38,2.29-.3,1.54-.42,3.17-.64,4.82-.8,6.63-1.68,13.94-2.61,21.67l-.23-.29,4.93.79,29.4,4.78-.27.18c1.75-9.05,2.94-16.66,3.55-22,.32-2.68.49-4.79.6-6.23.05-.69.09-1.24.11-1.65a2.26,2.26,0,0,1,.07-.56,4.88,4.88,0,0,1,0,.57c0,.37,0,.93,0,1.65-.06,1.44-.19,3.56-.46,6.25-.53,5.37-1.66,13-3.37,22.07l0,.22-.23,0-29.41-4.71-4.92-.79-.26,0,0-.25c1-7.74,1.86-15.05,2.67-21.68.23-1.65.36-3.27.66-4.83.14-.78.27-1.54.41-2.3a16.92,16.92,0,0,1,.61-2.2,20.75,20.75,0,0,1,1.89-3.87,17.06,17.06,0,0,1,2.52-3.06,15,15,0,0,1,5.74-3.53,14.38,14.38,0,0,1,2.68-.73,14.69,14.69,0,0,1,2.3-.3,17.64,17.64,0,0,1,3.19,0l.83,0Z" style="fill:#263238"></path><path d="M388.59,407.23c.09,0,.14,1.61.39,4.18a67.35,67.35,0,0,0,4.86,19.49c1,2.39,1.69,3.83,1.61,3.87a5.27,5.27,0,0,1-.59-1c-.36-.63-.83-1.58-1.37-2.76a56.37,56.37,0,0,1-4.89-19.61c-.08-1.3-.1-2.35-.08-3.08A5.15,5.15,0,0,1,388.59,407.23Z" style="fill:#263238"></path><path d="M337.41,439.46a1.52,1.52,0,0,1,.37.1l1.07.37,4,1.45,13.68,5.18-.1,0,9.81-.31,21.32-.58,6.47-.11h1.76a2.4,2.4,0,0,1,.61,0,2.3,2.3,0,0,1-.61.08l-1.75.1-6.46.28-21.33.73-9.8.29h-.05l-.05,0-13.62-5.36-3.9-1.59-1-.44A1.54,1.54,0,0,1,337.41,439.46Z" style="fill:#56352e"></path><path d="M406,458.52a53.72,53.72,0,0,0-4.07-7.08,55,55,0,0,0-5.52-6,8.16,8.16,0,0,1,2,1.4,25.62,25.62,0,0,1,4,4.3,26.32,26.32,0,0,1,2.9,5.09A7.71,7.71,0,0,1,406,458.52Z" style="fill:#56352e"></path><path d="M460,314.76s.12.09.32.3a9.37,9.37,0,0,1,.77,1,11.89,11.89,0,0,1,1.18,11,12.17,12.17,0,0,1-5.52,6.18l-.29.16.09-.41c1.82,2.28,3,5.06,2.75,7.68a7.4,7.4,0,0,1-1.24,3.42,11.47,11.47,0,0,1-2.08,2.35,7.44,7.44,0,0,1-4.05,2,3.26,3.26,0,0,1-1.64-.21,8.52,8.52,0,0,0,1.62,0,7.56,7.56,0,0,0,3.82-2,8.72,8.72,0,0,0,3.08-5.53c.24-2.44-.91-5.08-2.68-7.3l-.2-.25.29-.16.28-.14a11.88,11.88,0,0,0,5.31-5.9,11.53,11.53,0,0,0,.68-6.5,12.2,12.2,0,0,0-1.58-4.18C460.36,315.24,460,314.79,460,314.76Z" style="fill:#455a64"></path></g><g id="freepik--characters-1--inject-43"><path d="M276.55,449.77c.2.35,35.13,9.08,37.22,11.41,2.4,2.66-.69,5-.69,5l-62.48-.05,1.06-14Z" style="fill:#875244"></path><path d="M224.52,260.78s17.18,9.06,22.53,25.87c4,12.53,7.85,67.28,8.63,77.3s22.71,94,22.71,94l-25.37,5-23.36-84.47-8.11-49.91Z" style="fill:#875244"></path><path d="M220.32,331.47l33.91-11.67s-2.71-36-12.1-49.55c-6.39-9.21-22.59-14-22.59-14Z" style="fill:#e0e0e0"></path><path d="M165.61,238.88c-.91,0-45.3,15.17-45.3,15.17l.59,69.81L111,402.75l26.39,21.33s96.26-27.33,97.17-28-12.1-28.06-12.11-29,.18-15.14.18-15.14A47.82,47.82,0,0,0,230,335.24c2.34-10-.23-26.06-.23-26.06l-10.26-52.93L213,254.38Z" style="fill:#e0e0e0"></path><path d="M228.17,299.11a1.65,1.65,0,0,1,.18.44c.12.34.27.77.44,1.29s.41,1.24.62,2.06.49,1.73.7,2.76.48,2.16.68,3.39.38,2.55.55,3.93a73.13,73.13,0,0,1,.36,9.09,71.62,71.62,0,0,1-.9,9.05c-.26,1.38-.49,2.69-.79,3.89s-.58,2.34-.88,3.35-.6,1.92-.86,2.72-.52,1.47-.75,2l-.51,1.26a1.79,1.79,0,0,1-.21.42,1.84,1.84,0,0,1,.12-.46c.11-.34.26-.77.43-1.29s.43-1.23.66-2,.55-1.71.8-2.73.57-2.13.81-3.34.5-2.51.75-3.88a69.11,69.11,0,0,0,.54-18c-.16-1.38-.3-2.7-.51-3.91s-.4-2.36-.61-3.39-.44-2-.63-2.77-.38-1.51-.54-2.07-.26-1-.36-1.31A1.76,1.76,0,0,1,228.17,299.11Z" style="fill:#263238"></path><path d="M118.43,255.2s-14.35,2.52-19.82,16.95-19.37,75.52-20.92,81.92-3,19.15,4.14,24.65c8,6.1,32.09,14.33,32.09,14.33l8.87-15.66L108.25,359.6s13.16-37.32,13.91-43.32S118.43,255.2,118.43,255.2Z" style="fill:#875244"></path><path d="M152.33,377.36a3.74,3.74,0,0,1-.53-.08l-1.49-.32-5.6-1.26h0l-21.94,1.92h-.12l-.08-.1-3.84-4.67L108.22,360l0,0a15.15,15.15,0,0,0-12.91-3.07,16.83,16.83,0,0,0-3.66,1.3c-.8.41-1.21.67-1.22.65s.09-.08.28-.22.49-.32.88-.54a15,15,0,0,1,3.66-1.43,15.19,15.19,0,0,1,6.08-.23,15.47,15.47,0,0,1,7.16,3.22h0v0c3.13,3.8,6.76,8.19,10.6,12.86l3.83,4.68-.2-.09,22-1.74h.05l5.56,1.4,1.48.39A2.09,2.09,0,0,1,152.33,377.36Z" style="fill:#56352e"></path><path d="M82,310.72l38.39,13.14,8.08-11.36L121.72,254s-15.65,1.8-22.49,16.62C92.05,286.2,82,310.72,82,310.72Z" style="fill:#e0e0e0"></path><path d="M82,310.72a3.64,3.64,0,0,1,.73.2l2.08.65,7.62,2.48,25.08,8.36,4.27,1.44-.3.17c2.15-9,4.07-17,5.45-22.75s2.17-9.23,2.17-9.23,0,0,0,.16,0,.28-.05.49c-.07.42-.17,1.05-.34,1.85-.32,1.6-.82,3.92-1.46,6.8-1.29,5.76-3.15,13.77-5.31,22.79l-.06.25-.24-.08-4.27-1.44-25-8.49-7.57-2.63-2-.73A4.54,4.54,0,0,1,82,310.72Z" style="fill:#263238"></path><path d="M173.33,128.94a8.14,8.14,0,0,0-10-5.91,10.42,10.42,0,0,0-14.18-2.63c-2.08,1.48-3.53,3.7-5.54,5.27s-4.31,2.33-6.39,3.63-4,3.36-4,5.81c0,2.73,2.42,5,5.05,5.69s5.42.27,8.11-.19a2.84,2.84,0,0,0-.43,3.72,5.73,5.73,0,0,0,3.4,2.15,12.4,12.4,0,0,0,12.39-3.77l4.62-4.45A8.15,8.15,0,0,0,173.33,128.94Z" style="fill:#263238"></path><path d="M162.6,147.29a2.68,2.68,0,0,1-3.57.33,3.61,3.61,0,0,1-1.27-3.54,5.66,5.66,0,0,1,2.07-3.28,13.61,13.61,0,0,1,3.45-1.94,25.5,25.5,0,0,1,5.84-1.81,5,5,0,0,1,2.15,0,2.05,2.05,0,0,1,1.47,1.45c.2,1-.59,1.9-1.34,2.59a63.85,63.85,0,0,1-9,7" style="fill:#5EA7E7"></path><path d="M159.58,147.11c-5.4-4.82-17.26-2.75-19.72,1a9.17,9.17,0,0,0-11.51,5.23l-12.41,4.13c-2.12.7-4.33,1.47-5.84,3.11s-2,4.45-.44,6.05c-4.36,1.63-5.4,8.49-1.74,11.35a4.84,4.84,0,0,0,1.45,6.89,48.49,48.49,0,0,0-6.68,15c-.57,2.24-1,4.7.07,6.76s4,3.25,5.73,1.71a5.66,5.66,0,0,0,.38,6.12c-2.15.28-2.44,3.67-.79,5.07s4.06,1.32,6.2,1,4.46-.64,6.36.4a2,2,0,0,1-.56,1.44c-3.37,3.4-3.87,8.68-.69,12.25.29.34.56.64.81.92,1.43,1.63,4.68,2.92,6.7,3.72,5.14,2,8,1.23,13.49,1.44-1.11,3.66,8.52,10.48,17.8,1.79,20.7,3.27,35.42,3.79,56.27,1.63,3-.3,6.5-1.09,7.54-3.89a7.41,7.41,0,0,0,6.55-3,21.54,21.54,0,0,0,3.32-6.7A13,13,0,0,0,240,218a16.11,16.11,0,0,0,4.83-12c3.16-2,6.52-8.83,4-13.25a56.82,56.82,0,0,0-8-16.89c3.33-1.1,4.13-5.83,2.39-8.87s-5.06-4.77-8.2-6.33c2.62.4,4.5-3,3.62-5.53s-3.38-4-5.78-5.15a47.84,47.84,0,0,0-11.06-3.59c-1.69-4.36-8-8.86-12.38-10.4-17.79-6.22-29.88-7-49.8,11.12" style="fill:#263238"></path><path d="M157.58,166.1l28.64-13.21c11.4-3.07,21.38,10,24,21.51,2.88,12.8,5.88,28.54,5.88,38.43A29.89,29.89,0,0,1,199.37,240s1.8,11.86,1.8,11.86c-.46,9.34-10.16,10.6-10.16,10.6-26.56,3.61-30-11.22-30-11.22l-8.23-73.72C152.11,174,154.11,167,157.58,166.1Z" style="fill:#875244"></path><path d="M194.71,206.17c0-.15,1.58-.7,4.22-1.48.68-.17,1.3-.41,1.34-.9a3.44,3.44,0,0,0-.78-1.95L196.64,197c-4-7-7-12.73-6.71-12.89s3.75,5.36,7.73,12.32l2.78,4.93a4.07,4.07,0,0,1,.78,2.63,1.77,1.77,0,0,1-1,1.18,4.57,4.57,0,0,1-1.13.34C196.43,206,194.74,206.32,194.71,206.17Z" style="fill:#263238"></path><path d="M199.37,240s-10.68.52-24.85-5.19c0,0,5.91,11.8,25.69,11.08Z" style="fill:#56352e"></path><path d="M179.82,177.48c-.14.77-2.87.85-5.95,1.73s-5.49,2.14-6,1.55c-.24-.28.1-1,1-1.9a10.8,10.8,0,0,1,9.11-2.5C179.21,176.64,179.88,177.12,179.82,177.48Z" style="fill:#263238"></path><path d="M205.66,174.11c-.37.68-2.32.34-4.54.67s-4,1.06-4.57.49c-.24-.28,0-.93.69-1.64a6.68,6.68,0,0,1,7.34-.94C205.46,173.19,205.82,173.78,205.66,174.11Z" style="fill:#263238"></path><path d="M220,182.77a13.48,13.48,0,0,0-4.19-8c-1.28-1.1-2.84-1.86-4-3.08-2.52-2.63-2.67-6.67-4-10.07a14.8,14.8,0,0,0-10.25-8.87c-3.81-.89-7.94-.25-11.58-1.68-2.69-1.06-4.89-3.17-7.64-4.07-5.35-1.75-10.95,1.54-15.44,4.95-.52,3.92,2.28,7,5,9.86a13.7,13.7,0,0,0,10.65,4.32c3.07-.16,6.55-1.25,8.94.68s2.1,6.16,4.25,8.57c3.07,3.44,8.93,1.33,13.16,3.2,3.26,1.44,5,4.95,6.86,8s4.95,6,8.47,5.47A40,40,0,0,0,220,182.77Z" style="fill:#263238"></path><path d="M171.31,158a69.53,69.53,0,0,0-25.59,7.69c-2.36,1.24-4.78,2.76-5.93,5.17-1,2.12-.89,4.59-.59,6.92.92,7.3,4.88,15.91,8.43,22.34l9.75,4.43c6.83-2.47,2.23-14.23,1.19-20.27a14.47,14.47,0,0,0,7-13.64A16,16,0,0,0,171.31,158Z" style="fill:#263238"></path><path d="M157,201.94c-.75-4.15-6-4.38-9.32-1.82-1.84,1.41-3,3.92-2.3,8.32,2,11.76,13.41,7.3,13.37,7S157.83,206.79,157,201.94Z" style="fill:#875244"></path><path d="M154.35,211.56c-.06,0-.18.18-.5.4a2.12,2.12,0,0,1-1.53.3c-1.32-.25-2.7-2-3.12-4.14a6.83,6.83,0,0,1,.06-3,2.41,2.41,0,0,1,1.27-1.84,1.06,1.06,0,0,1,1.31.35c.21.3.18.55.24.56s.22-.24,0-.71a1.3,1.3,0,0,0-.59-.66,1.57,1.57,0,0,0-1.18-.1,2.89,2.89,0,0,0-1.82,2.19,7,7,0,0,0-.15,3.4c.48,2.35,2.08,4.36,3.86,4.56a2.23,2.23,0,0,0,1.82-.64C154.37,211.85,154.39,211.58,154.35,211.56Z" style="fill:#56352e"></path><path d="M153.6,216.69a1,1,0,0,1,0,.16,1.67,1.67,0,0,1-.11.47,2.72,2.72,0,0,1-1.23,1.38,7.13,7.13,0,0,1-2.85.94,9.86,9.86,0,0,1-1.92.1,7,7,0,0,1-2.14-.39l.13-.09a5.92,5.92,0,0,1-8.94,4.81l.2-.06a2.47,2.47,0,0,1-1.44,1.21,3.34,3.34,0,0,1-1.93.06,3.11,3.11,0,0,1-1.68-1.08,4.11,4.11,0,0,1-.83-1.88,6.13,6.13,0,0,1,.84-4.09,18.26,18.26,0,0,1,2.77-3.39l.06.27a4.21,4.21,0,0,1-2.2-2.59,6.14,6.14,0,0,1-.06-3.53A9.54,9.54,0,0,1,134,205.8a30.52,30.52,0,0,1,2.53-2.69v.27a4.45,4.45,0,0,1-1.55-3.3,6.42,6.42,0,0,1,.93-3.66c1.3-2.11,3.39-3.44,5.31-4.69l-.07.22a7.91,7.91,0,0,1,7.43-10.67l-.16.22a6.81,6.81,0,0,1,.94-5.94,6.71,6.71,0,0,1,4.72-3l-.13.16a6.68,6.68,0,0,1,2.1-5.46,6.48,6.48,0,0,1,4.79-1.93l-.12.13a6.51,6.51,0,0,1,.61-3.15,8.39,8.39,0,0,1,1.55-2.37,6.83,6.83,0,0,1,3.84-2.21l.44-.08h.43a4.69,4.69,0,0,1,.75,0,7,7,0,0,1,1.17.19l.69.2.23.08-.24,0-.69-.18a9,9,0,0,0-1.16-.16,6.48,6.48,0,0,0-.75,0c-.13,0-.27,0-.41,0l-.43.09A6.73,6.73,0,0,0,163,160a8.45,8.45,0,0,0-1.49,2.34,6.37,6.37,0,0,0-.57,3v.14h-.13a6.29,6.29,0,0,0-4.59,1.89,6.37,6.37,0,0,0-2,5.23v.15l-.14,0a6.42,6.42,0,0,0-4.49,2.91,6.5,6.5,0,0,0-.89,5.65l.08.22h-.24a7.56,7.56,0,0,0-7.09,10.21l.05.14-.12.08c-1.92,1.24-4,2.55-5.2,4.57a6.14,6.14,0,0,0-.88,3.45,4.09,4.09,0,0,0,1.42,3l.16.13-.15.14c-1.76,1.7-3.52,3.48-4.17,5.72a5.77,5.77,0,0,0,0,3.32,3.82,3.82,0,0,0,2,2.39l.22.1-.17.17a17.71,17.71,0,0,0-2.74,3.32,5.8,5.8,0,0,0-.81,3.88,3.21,3.21,0,0,0,2.27,2.72,2.61,2.61,0,0,0,3.05-1.11l.06-.13.13.08a5.79,5.79,0,0,0,6-.12,5.86,5.86,0,0,0,2.58-4.46v-.13l.12,0a6.54,6.54,0,0,0,2.08.4,9.72,9.72,0,0,0,1.89-.07,7.16,7.16,0,0,0,2.82-.88,2.69,2.69,0,0,0,1.23-1.31C153.57,216.91,153.58,216.68,153.6,216.69Z" style="fill:#455a64"></path><path d="M107.09,209.14a3.93,3.93,0,0,1-.53-.66,6.22,6.22,0,0,1-.89-2.27,6,6,0,0,1,.54-3.83,6.35,6.35,0,0,1,4-3.21l-.08.15a8.14,8.14,0,0,1,.4-6,8,8,0,0,1,2-2.72,18,18,0,0,1,3.06-1.89,6.76,6.76,0,0,0,1.45-1.1,4,4,0,0,0,.91-1.58c.4-1.19.42-2.55.94-3.85a7.25,7.25,0,0,1,6.8-4.39l-.18.22a9.54,9.54,0,0,1,9.28-11.93l-.17.21a8.38,8.38,0,0,1,12.06-9.25l-.19,0a11.45,11.45,0,0,1,3.84-3,17.7,17.7,0,0,1,4.14-1.46,20,20,0,0,1,7.07-.32,14.2,14.2,0,0,1,4.36,1.26,6.89,6.89,0,0,1,1,.59l.34.22s-.48-.28-1.42-.73a14.69,14.69,0,0,0-4.34-1.17,20.28,20.28,0,0,0-7,.39,17,17,0,0,0-4.06,1.47,11.2,11.2,0,0,0-3.74,2.93l-.07.1-.11-.06A8.06,8.06,0,0,0,135,166.26l.05.21h-.22A9.18,9.18,0,0,0,125.88,178l.06.24h-.25a6.87,6.87,0,0,0-6.46,4.16c-.5,1.21-.53,2.57-1,3.82a4.28,4.28,0,0,1-1,1.7,6.41,6.41,0,0,1-1.52,1.15,18.39,18.39,0,0,0-3,1.85,7.64,7.64,0,0,0-2,2.61,8,8,0,0,0-.44,5.77l0,.12-.12,0a6.14,6.14,0,0,0-3.87,3.07,5.9,5.9,0,0,0-.58,3.71,6.18,6.18,0,0,0,.82,2.26C106.91,208.91,107.1,209.13,107.09,209.14Z" style="fill:#455a64"></path><path d="M220.61,199.53a1.18,1.18,0,0,1-.15-1,2.18,2.18,0,0,1,.58-1.05,4.09,4.09,0,0,1,1.38-.91,6.92,6.92,0,0,0,1.76-1,3.73,3.73,0,0,0,1.11-2.05,7,7,0,0,0,0-2.74c-.15-1-.42-2-.55-3.09-.27-2.24.42-4.63.72-7.17a10,10,0,0,0-.28-3.91,4.78,4.78,0,0,0-2.53-3.08,18,18,0,0,0-4.3-.94,7.38,7.38,0,0,1-2.24-.74,4.8,4.8,0,0,1-1.7-1.71,22.52,22.52,0,0,1-1.78-4.51,7.72,7.72,0,0,0-1.07-2.15,3.57,3.57,0,0,0-1.92-1.33,13.1,13.1,0,0,0-3.32-.08,5.27,5.27,0,0,1-1.71-.23,3.25,3.25,0,0,1-1.43-.95,11.39,11.39,0,0,1-1.58-2.89,7.39,7.39,0,0,0-1.79-2.5,7.16,7.16,0,0,0-5.43-1.88,7.42,7.42,0,0,0-4.82,2.39l-.14.16-.11-.18a11.3,11.3,0,0,0-7.71-5.27,10.25,10.25,0,0,0-4,.1,9.61,9.61,0,0,0-3.14,1.27,8.43,8.43,0,0,0-3.1,3.57,9.28,9.28,0,0,0-.46,1.18c0,.13-.08.23-.11.31a.39.39,0,0,1,0,.1s0,0,0-.11.05-.18.08-.31a7.36,7.36,0,0,1,.42-1.21,8.44,8.44,0,0,1,3.09-3.68,9.61,9.61,0,0,1,3.2-1.33,10.61,10.61,0,0,1,4.08-.15,11.6,11.6,0,0,1,7.94,5.37l-.25,0a7.65,7.65,0,0,1,5-2.51,7.5,7.5,0,0,1,5.69,1.95,7.65,7.65,0,0,1,1.88,2.61,11.48,11.48,0,0,0,1.53,2.8,3.48,3.48,0,0,0,2.87,1.06,13.07,13.07,0,0,1,3.41.09,4,4,0,0,1,2.12,1.46,8,8,0,0,1,1.12,2.25A23.67,23.67,0,0,0,214.7,170a4.43,4.43,0,0,0,1.58,1.58,6.8,6.8,0,0,0,2.12.71,17.79,17.79,0,0,1,4.39,1,4.71,4.71,0,0,1,1.72,1.37,6,6,0,0,1,1,1.92,10.27,10.27,0,0,1,.28,4c-.32,2.58-1,4.93-.76,7.11.11,1.08.37,2.1.52,3.09a7.41,7.41,0,0,1,0,2.82,3.85,3.85,0,0,1-1.2,2.13,6.65,6.65,0,0,1-1.82,1,4.07,4.07,0,0,0-1.35.85,2.12,2.12,0,0,0-.59,1A1.47,1.47,0,0,0,220.61,199.53Z" style="fill:#455a64"></path><path d="M241.5,178.6a1.08,1.08,0,0,1-.14-.21c-.1-.15-.24-.36-.4-.62l-1.52-2.43c-.66-1.05-1.41-2.37-2.45-3.79a10.5,10.5,0,0,0-4.44-3.8c-1-.41-2.16-.63-3.33-1a7.06,7.06,0,0,1-1.72-.76,4.05,4.05,0,0,1-1.38-1.41c-.7-1.16-.88-2.55-1.47-3.77a3.4,3.4,0,0,0-1.32-1.49,6.54,6.54,0,0,0-2-.66,12.2,12.2,0,0,1-2.19-.57,3.74,3.74,0,0,1-1.8-1.49,17.26,17.26,0,0,1-1.53-4.47,5.58,5.58,0,0,0-1-2.08,3,3,0,0,0-2-1c-1.6-.14-3.21.59-5,.51a4.2,4.2,0,0,1-2.41-.95,10.79,10.79,0,0,1-1.71-1.87,23.79,23.79,0,0,0-1.53-1.89,4.54,4.54,0,0,0-1.91-1.29c-1.48-.49-3,0-4.46.54a10.46,10.46,0,0,1-4.45.9,11.91,11.91,0,0,1-4.11-1.34,20.56,20.56,0,0,0-3.7-1.53,12.3,12.3,0,0,0-7,.57,13.18,13.18,0,0,0-4.9,3.26,14.84,14.84,0,0,0-2.48,3.73,16.59,16.59,0,0,0-.94,2.68c-.08.3-.15.54-.2.72a.75.75,0,0,1-.08.24,2.12,2.12,0,0,1,0-.25l.16-.73a14.59,14.59,0,0,1,.88-2.72,14.23,14.23,0,0,1,2.47-3.8,13.13,13.13,0,0,1,5-3.37,12.54,12.54,0,0,1,7.21-.63,20.57,20.57,0,0,1,3.76,1.55,12,12,0,0,0,4,1.29,10.24,10.24,0,0,0,4.3-.89,15.14,15.14,0,0,1,2.26-.67,5.06,5.06,0,0,1,2.44.11,5,5,0,0,1,2.05,1.38,23.78,23.78,0,0,1,1.56,1.92,10.48,10.48,0,0,0,1.64,1.81,3.9,3.9,0,0,0,2.21.87c1.64.08,3.25-.65,5-.51a3.38,3.38,0,0,1,2.26,1.15,6.28,6.28,0,0,1,1.1,2.21,17.45,17.45,0,0,0,1.48,4.39,3.42,3.42,0,0,0,1.64,1.37,11.9,11.9,0,0,0,2.13.55,6.69,6.69,0,0,1,2.1.71,3.72,3.72,0,0,1,1.44,1.63c.61,1.29.78,2.67,1.44,3.76a4.84,4.84,0,0,0,2.93,2.06c1.14.37,2.29.59,3.34,1a10.78,10.78,0,0,1,4.51,3.92c1,1.45,1.76,2.78,2.4,3.84s1.11,1.88,1.46,2.46c.15.27.28.48.37.65A.85.85,0,0,1,241.5,178.6Z" style="fill:#455a64"></path><path d="M227.51,167.65s.07,0,.21-.06a1.27,1.27,0,0,1,.64.06,2.56,2.56,0,0,1,1.42,2,6.06,6.06,0,0,1-.05,1.79,7.57,7.57,0,0,0-.08,2.09,4.62,4.62,0,0,0,1.08,2.09c.54.66,1.21,1.29,1.78,2.09a3.41,3.41,0,0,1,.63,2.94c-.26,1-.9,2-1.14,3a4.43,4.43,0,0,0,.69,3.23c.58,1,1.36,2,1.95,3.15a5.39,5.39,0,0,1,.6,1.88,4.92,4.92,0,0,1-.23,2,22.55,22.55,0,0,1-1.87,3.62,5.5,5.5,0,0,0-.82,3.89,17.4,17.4,0,0,0,1.88,3.83,6.13,6.13,0,0,1,.69,2.13,4.93,4.93,0,0,1-.32,2.19,18.54,18.54,0,0,1-2.17,3.64,9.8,9.8,0,0,0-1.69,3.58,27.6,27.6,0,0,1-.81,3.82,4.27,4.27,0,0,1-1,1.64,5.37,5.37,0,0,1-1.58,1,15.28,15.28,0,0,0-1.57.77,6,6,0,0,0-1.27,1.09,12.54,12.54,0,0,0-1.65,2.75c-.44.94-.85,1.87-1.33,2.71a8.17,8.17,0,0,1-3.77,3.5,8.89,8.89,0,0,1-3.83.81,7.58,7.58,0,0,1-2.43-.43,5.36,5.36,0,0,1-.79-.34,9,9,0,0,0,3.22.63,8.86,8.86,0,0,0,3.74-.86,7.93,7.93,0,0,0,3.64-3.44c.46-.83.86-1.75,1.3-2.7a12.2,12.2,0,0,1,1.68-2.83,6.1,6.1,0,0,1,1.32-1.15,14.18,14.18,0,0,1,1.61-.8,5.37,5.37,0,0,0,1.49-.94,4.06,4.06,0,0,0,.94-1.51,30,30,0,0,0,.79-3.78,9.77,9.77,0,0,1,1.73-3.71,17.93,17.93,0,0,0,2.13-3.57,4.67,4.67,0,0,0,.29-2,6.12,6.12,0,0,0-.65-2,17.79,17.79,0,0,1-1.91-3.92,4.47,4.47,0,0,1,0-2.18,8.65,8.65,0,0,1,.82-2,22.92,22.92,0,0,0,1.85-3.57,4.6,4.6,0,0,0,.22-1.87,5.25,5.25,0,0,0-.56-1.76c-.56-1.11-1.33-2.09-1.93-3.15a4.75,4.75,0,0,1-.71-3.44c.28-1.14.92-2.06,1.17-3a3.12,3.12,0,0,0-.57-2.72c-.54-.78-1.2-1.42-1.74-2.1a4.75,4.75,0,0,1-1.11-2.2,7.42,7.42,0,0,1,.11-2.14,6.25,6.25,0,0,0,.08-1.75,2.51,2.51,0,0,0-1.3-1.92A1.45,1.45,0,0,0,227.51,167.65Z" style="fill:#455a64"></path><path d="M146.38,215.54a6.35,6.35,0,0,0-1.65,1.23,8.1,8.1,0,0,0-2.34,5,8.5,8.5,0,0,0,.54,3.87,9.58,9.58,0,0,0,2.6,3.65,9.78,9.78,0,0,0,4.42,2.24,8.94,8.94,0,0,0,5.29-.48,9.76,9.76,0,0,0,4.2-3.26,8.73,8.73,0,0,0,1.65-4.68,9.24,9.24,0,0,0-3.21-7.52,8.27,8.27,0,0,0-2.89-1.43,8.37,8.37,0,0,0-2.4-.34,5.22,5.22,0,0,0-1.52.22,2.13,2.13,0,0,0-.49.22,6.79,6.79,0,0,1,2-.26,9,9,0,0,1,5.09,1.84,9,9,0,0,1,3,7.25,8.3,8.3,0,0,1-1.59,4.43,9.27,9.27,0,0,1-4,3.1,8.54,8.54,0,0,1-5,.47,9.44,9.44,0,0,1-4.24-2.11,9.29,9.29,0,0,1-2.53-3.48,8.34,8.34,0,0,1-.57-3.7,8.06,8.06,0,0,1,2.15-5C145.76,215.94,146.42,215.59,146.38,215.54Z" style="fill:#e0e0e0"></path><path d="M184.49,195.79a2.58,2.58,0,0,1-2.05,3,2.47,2.47,0,0,1-3-1.89,2.58,2.58,0,0,1,2.05-3A2.47,2.47,0,0,1,184.49,195.79Z" style="fill:#263238"></path><path d="M208.45,191.82a2.58,2.58,0,0,1-2.06,3,2.47,2.47,0,0,1-3-1.89,2.58,2.58,0,0,1,2.06-3A2.48,2.48,0,0,1,208.45,191.82Z" style="fill:#263238"></path><path d="M206.4,183.09c-.2.41-2.32-.7-4.81-.13s-4,2.42-4.32,2.13c-.17-.13,0-.83.61-1.68a5.75,5.75,0,0,1,7.28-1.6C206.09,182.32,206.5,182.9,206.4,183.09Z" style="fill:#263238"></path><path d="M182.54,187.89c-.3.43-2.65-1-5.68-.63s-5.05,2.26-5.43,1.9c-.19-.15.08-.91.95-1.78a7.47,7.47,0,0,1,4.29-2,7.24,7.24,0,0,1,4.58,1C182.28,187,182.69,187.69,182.54,187.89Z" style="fill:#263238"></path><path d="M234.74,129.9a15.34,15.34,0,0,0-3.44-1.5,11.42,11.42,0,0,0-4.34-.28,10.56,10.56,0,0,0-5.24,2.18l-.24.19-.19-.25a9.77,9.77,0,0,0-6.42-3.68,9.93,9.93,0,0,0-8.17,2.26l-.29.25-.26-.28a16,16,0,0,0-10.81-5,15.34,15.34,0,0,0-9.06,2.43,16.07,16.07,0,0,0-5.76,6.41l-.09.17-.19,0A24.11,24.11,0,0,0,171,136.3a24.82,24.82,0,0,0-5.86,5.07,33.55,33.55,0,0,0-3.76,5.74s0-.16.14-.45.27-.72.53-1.25a23.44,23.44,0,0,1,2.75-4.32,24.83,24.83,0,0,1,5.88-5.3,24.3,24.3,0,0,1,9.5-3.66l-.28.21a16.61,16.61,0,0,1,6-6.76,16,16,0,0,1,9.52-2.58,16.73,16.73,0,0,1,11.34,5.27l-.54,0a10.65,10.65,0,0,1,8.8-2.39,10.39,10.39,0,0,1,6.79,4l-.42-.06a11,11,0,0,1,5.55-2.18,11.46,11.46,0,0,1,4.49.43,10.15,10.15,0,0,1,2.58,1.2A3.82,3.82,0,0,1,234.74,129.9Z" style="fill:#263238"></path><path d="M154.09,134.85a7.06,7.06,0,0,1-2.88,1,10.71,10.71,0,0,1-8.1-1.9,9.92,9.92,0,0,1-3.46-4.79,11,11,0,0,1-.11-6.82,10.11,10.11,0,0,1,4.84-5.82,10.83,10.83,0,0,1,8.14-1l-.45.16a7.66,7.66,0,0,1,4.17-3,8,8,0,0,1,4.35-.12,7.13,7.13,0,0,1,3.58,2.29,7.91,7.91,0,0,1,1.54,7.61l-.58-.42a6.53,6.53,0,0,1,6.08-.82,6.77,6.77,0,0,1,4.08,3.83,8.66,8.66,0,0,1-1.4,8.77,10.74,10.74,0,0,1-4.91,3.3,9.82,9.82,0,0,1-1.54.38,2,2,0,0,1-.54.05c0-.06.73-.16,2-.66a10.93,10.93,0,0,0,4.64-3.36,8.16,8.16,0,0,0,1.17-8.23A6,6,0,0,0,171,121.9a5.83,5.83,0,0,0-5.39.74l-1,.78.41-1.2a7.18,7.18,0,0,0-1.43-6.85,6.42,6.42,0,0,0-3.19-2,7.33,7.33,0,0,0-3.91.12,6.88,6.88,0,0,0-3.73,2.71l-.16.25-.29-.08a10.07,10.07,0,0,0-7.54.89,9.42,9.42,0,0,0-4.53,5.36,10.45,10.45,0,0,0,0,6.41,9.39,9.39,0,0,0,3.19,4.56,10.6,10.6,0,0,0,7.73,2A16.67,16.67,0,0,0,154.09,134.85Z" style="fill:#263238"></path><path d="M101.31,172s-.12-.13-.28-.42a7.92,7.92,0,0,1-.61-1.33,12.73,12.73,0,0,1,2.58-13,13.22,13.22,0,0,1,9.63-4.17l-.36.26a15.69,15.69,0,0,1,7.11-8.42,15.25,15.25,0,0,1,8.19-1.9,15.69,15.69,0,0,1,7.37,2.25h-.4a17.37,17.37,0,0,1,8.19-3,17.89,17.89,0,0,1,6.75.6,16,16,0,0,1,4,1.75,6.09,6.09,0,0,1,1.25.93,23,23,0,0,0-5.38-2.26,18,18,0,0,0-6.57-.42,17,17,0,0,0-7.84,3l-.19.14-.21-.12a14.92,14.92,0,0,0-7-2.08,14.5,14.5,0,0,0-7.76,1.81,15.16,15.16,0,0,0-6.78,8l-.09.26h-.28a12.69,12.69,0,0,0-9.15,3.85,12.25,12.25,0,0,0-3.32,7.21,13.32,13.32,0,0,0,.51,5.3C101,171.34,101.36,171.94,101.31,172Z" style="fill:#263238"></path><path d="M183.45,213.37a3.78,3.78,0,0,1,3.47-3.4,4,4,0,0,1,3.31,1.71,4.86,4.86,0,0,1,.71,3.73l0,.27a4.31,4.31,0,0,1-4.66,1.71A4,4,0,0,1,183.45,213.37Z" style="fill:#56352e"></path><path d="M193,215.45c-.06-.44-2.95.11-5.47-2s-2.8-5.2-3.21-5.14c-.19,0-.42.79-.21,2.09a7.32,7.32,0,0,0,2.51,4.33,6.4,6.4,0,0,0,4.55,1.46C192.41,216.1,193.06,215.64,193,215.45Z" style="fill:#263238"></path><path d="M199.35,405.62c1.18-.8,61.82-16.66,80.62-21.14s29-8.89,40.47,3.58,7.2,16.42.28,32.58-34.29,29.34-51.14,33-57.7.5-57.7.5l-.24-27.08Z" style="fill:#263238"></path><path d="M206.82,433.45s.05-.08.16-.22l.51-.59,2-2.25c1.76-1.93,4.31-4.73,7.6-8.07a133.77,133.77,0,0,1,12.22-11,75.9,75.9,0,0,1,17.24-10.4,90.15,90.15,0,0,1,19.34-5.62c6.11-1.07,11.67-1.62,16.34-2s8.46-.52,11.07-.63l3-.1.78,0h.27a.72.72,0,0,1-.27,0l-.78.06-3,.2c-2.61.16-6.39.39-11.05.78s-10.21,1-16.29,2.07a91.59,91.59,0,0,0-19.24,5.63,76.5,76.5,0,0,0-17.15,10.31,137.44,137.44,0,0,0-12.25,10.92c-3.32,3.3-5.91,6.06-7.71,8l-2.08,2.18-.54.57Z" style="fill:#455a64"></path><path d="M56.15,423.32s21.05,27.3,38.37,33.43S203,455.81,203,455.81l-4.87-43.53-75-3.67Z" style="fill:#263238"></path><path d="M208.87,340.28,222.44,366,250,375.62l-6.71,10.93c-.5.57-24.17,2.09-31.05.68s-24.69-38.87-24.69-38.87Z" style="fill:#ae7461"></path><path d="M217.08,341.49s-7.17-10.42-10-15.29c-4.27-7.26-14.63-9.15-14.63-9.15l8.12,32.85Z" style="fill:#5EA7E7"></path><path d="M130.88,251.71a10.6,10.6,0,0,1-.8,20.17c-3.57,1-8.17-.62-9-4.23a9.85,9.85,0,0,1-3.61,9.12,7.86,7.86,0,0,1-9.52-.12c-2.59-2.24-3-6.72-.59-9.16a12.47,12.47,0,0,1-11-.89,10.53,10.53,0,0,1-4.88-9.73A9.1,9.1,0,0,1,98.7,249,9.93,9.93,0,0,1,114,236.34a9.88,9.88,0,0,1,19.24,2,7.93,7.93,0,0,1-.12,15.64" style="fill:#263238"></path><path d="M123.12,266.88c-2.93-4.86-2.33-6.39-.48-10.11a9,9,0,0,1,8.76-5.07c-.74-4.27-1.63-7.19,1.45-10.37,3.26-3.37,5.17-3.45,9.81-4.06a17.21,17.21,0,0,1,10.48-5.86A16,16,0,0,1,164.56,234c4.91-1.67,10.66-.3,13.84,3.32,1.49,1.69,2.49,3.84,4.43,5.06a11.29,11.29,0,0,1,3.63,3.19c1.65,2.54,1.77,3.94,1.62,7.24-.11,2.28-.78,5.71,1,7.16,6.85,5.64,2.51,15.69.4,17l-35.75,26.76a10.44,10.44,0,0,1-9.37,5.11,8.86,8.86,0,0,1-8-6c-6.36-1.41-10.87-7.54-10.12-13.77C120,286.25,117.24,276.35,123.12,266.88Z" style="fill:#263238"></path><path d="M181.37,255.79c-3.91-9.69-17.57-16-26.8-11.72l-17.78,10.22a15.67,15.67,0,0,0-6.7,19L137,283.5l15.79,46.75-1.39,1.12s9.77,20.36,26.8,13.19c15.29-6.44,5.19-24.29,5.18-24.3L179,308s15.24-6.18,12.28-23.55C189.83,275.84,185.72,266.56,181.37,255.79Z" style="fill:#ae7461"></path><path d="M182.24,273.48A2.23,2.23,0,0,1,181,276.3a2.08,2.08,0,0,1-2.75-1.19,2.22,2.22,0,0,1,1.26-2.81A2.08,2.08,0,0,1,182.24,273.48Z" style="fill:#263238"></path><path d="M181.65,265.91c-.16.33-1.87-.33-3.85.3s-3.14,2.14-3.43,2,0-.61.46-1.3a5.22,5.22,0,0,1,2.64-1.87,4.89,4.89,0,0,1,3.16.07C181.39,265.37,181.73,265.76,181.65,265.91Z" style="fill:#263238"></path><path d="M163.71,279a2.21,2.21,0,0,1-1.26,2.81,2.08,2.08,0,0,1-2.76-1.18,2.22,2.22,0,0,1,1.27-2.81A2.07,2.07,0,0,1,163.71,279Z" style="fill:#263238"></path><path d="M161.22,272.26c-.16.33-1.87-.33-3.85.3s-3.13,2.14-3.42,1.95c-.14-.08,0-.61.45-1.3a5.21,5.21,0,0,1,2.65-1.87,4.89,4.89,0,0,1,3.16.07C161,271.72,161.3,272.11,161.22,272.26Z" style="fill:#263238"></path><path d="M172.87,285.67a20.19,20.19,0,0,1,3.41-1.78c.55-.24,1.05-.52,1.05-.86s-.36-.77-.8-1.2L173.77,279c-1-1-6.35-7-6.6-7.64.22-.16,3.54,3,7.41,7.06l2.69,2.89c.38.43.93.88.86,1.66a1.47,1.47,0,0,1-.71,1,4.87,4.87,0,0,1-.93.45A19,19,0,0,1,172.87,285.67Z" style="fill:#263238"></path><path d="M179.16,308a42,42,0,0,1-23.43,1.44s9.31,9.93,24.83,2.9Z" style="fill:#6f4439"></path><path d="M159.9,266.41c0,.8-2.09.92-4.34,1.87s-3.94,2.28-4.41,1.69c-.22-.28-.05-1.06.54-2a6.57,6.57,0,0,1,3-2.42,5.86,5.86,0,0,1,3.68-.28C159.33,265.56,159.9,266,159.9,266.41Z" style="fill:#263238"></path><path d="M179.92,258.6c-.15.77-2,.81-3.85,1.59s-3.28,1.87-3.91,1.41c-.28-.24-.28-.94.18-1.8a5.35,5.35,0,0,1,6.25-2.42C179.5,257.71,180,258.23,179.92,258.6Z" style="fill:#263238"></path><path d="M137.75,284.16s-11.62-.21-7.88,9.73,12.67,4.14,12.58,3.85S137.75,284.16,137.75,284.16Z" style="fill:#ae7461"></path><path d="M138.08,295.12c-.05,0-.12.18-.36.43a1.77,1.77,0,0,1-1.24.51c-1.17,0-2.65-1.33-3.38-3.1a6.42,6.42,0,0,1-.46-2.66,2.14,2.14,0,0,1,.76-1.82.89.89,0,0,1,1.17.09c.24.23.25.45.31.45s.14-.25-.09-.63a1.14,1.14,0,0,0-.61-.48,1.35,1.35,0,0,0-1,.11,2.56,2.56,0,0,0-1.17,2.22,6.43,6.43,0,0,0,.46,3c.81,2,2.52,3.47,4.07,3.34a1.9,1.9,0,0,0,1.44-.86C138.15,295.36,138.12,295.12,138.08,295.12Z" style="fill:#6f4439"></path><path d="M173.26,291c.05.08-.34.46-1.16.74a5,5,0,0,1-5.9-2.21c-.43-.75-.48-1.29-.39-1.32s.34.42.83,1a5.85,5.85,0,0,0,2.39,1.73,5.74,5.74,0,0,0,2.94.26C172.74,291,173.21,290.85,173.26,291Z" style="fill:#263238"></path><g style="opacity:0.4"><path d="M157,286.05a3.35,3.35,0,0,1,1.62-1.55,7.17,7.17,0,0,1,1.71-.38,2.48,2.48,0,0,1,1.66.45,1.49,1.49,0,0,1,.55,1.56,2.07,2.07,0,0,1-.91,1,6.83,6.83,0,0,1-2.13.91,2.43,2.43,0,0,1-2-.26A1.45,1.45,0,0,1,157,286.05Z" style="fill:#6f4439"></path></g><g style="opacity:0.4"><path d="M181.48,278.58A3.39,3.39,0,0,1,183.1,277a7.69,7.69,0,0,1,1.71-.38,2.49,2.49,0,0,1,1.66.45,1.5,1.5,0,0,1,.55,1.56,2.07,2.07,0,0,1-.91,1,6.6,6.6,0,0,1-2.13.91,2.47,2.47,0,0,1-2-.25A1.46,1.46,0,0,1,181.48,278.58Z" style="fill:#6f4439"></path></g><path d="M126.81,273.08a13.36,13.36,0,0,1,.43-8.42c1-2.7.51-7.37,2.26-9.64,3.75-4.88,10.37-7,15.78-9.89s13.41-8.9,19.5-8l17.85,11c.19,2.74-3.36,5.27-5.26,4.63a5.36,5.36,0,0,1-3.54-4.45c-2.58,2.34-9,2.33-11-.51-1.81,5-5.93,7.57-11,6.2a8.27,8.27,0,0,1-9.24,10.71,9.78,9.78,0,0,1,3.72,6.33c.2,2.51-1.38,5.25-3.85,5.71a11.41,11.41,0,0,1,4.2,4.05,6.53,6.53,0,0,1,.47,5.69,4.62,4.62,0,0,1-4.73,2.79,7.93,7.93,0,0,1-3.95-2.54l-5.51-5.4C130.41,279,127.84,276.4,126.81,273.08Z" style="fill:#263238"></path><path d="M120.64,273.4s0-.69.21-1.9a8.47,8.47,0,0,1,2.41-4.48l.11-.12-.09-.14A9.84,9.84,0,0,1,122,259.2a9.46,9.46,0,0,1,6.33-6.75,9.7,9.7,0,0,1,3.06-.47h.45l-.18-.41a10,10,0,0,1,.17-8.19,9.44,9.44,0,0,1,4.83-4.61,10.39,10.39,0,0,1,4.46-.87c1.09,0,1.67.2,1.68.14a1.7,1.7,0,0,0-.41-.13,7,7,0,0,0-1.25-.21,10,10,0,0,0-4.63.72,9.66,9.66,0,0,0-5.13,4.74,10.4,10.4,0,0,0-.24,8.64l.27-.39a9.78,9.78,0,0,0-3.26.49,10,10,0,0,0-6.66,7.17A10.15,10.15,0,0,0,123,267l0-.26a8.43,8.43,0,0,0-2.35,4.73,8,8,0,0,0-.07,1.44A1.56,1.56,0,0,0,120.64,273.4Z" style="fill:#455a64"></path><path d="M135.37,314.61l11.37-2.15c18.45,13.13,34.48,11.34,34.4,1.54l11.28,3.05s14.77,39,16,46.23S218.91,400,218.91,400s-39,16.31-49.37,15.91-46.45-4.46-46.45-4.46l12.63-74.21Z" style="fill:#5EA7E7"></path><polygon points="218.91 399.99 240.31 394.54 213.27 413.33 199.37 407.63 218.91 399.99" style="fill:#263238"></polygon><path d="M252.85,388.36c8.86-2.18,17.29,5.51,15.41,14.43q-.09.43-.21.87c-2.88,10.55-24.46,30.25-28.81,33.08s-35.17,13.66-35.17,13.66l-10.19-32S232.45,401,241.13,394A30.05,30.05,0,0,1,252.85,388.36Z" style="fill:#ae7461"></path><path d="M282.91,430.75c-3-3.48-6.84-3-11.33-1.88-3.6.93-10.29,2.14-13.94,2.82-7.47,1.38-16.21-1.35-22.7-5.3l-14.13,18.19a29.85,29.85,0,0,1,18.05,5.89c3.35,2.5,6.21,6.43,10.4,6.29,2.81-.1,6.44-1,8.51-2.95,2.69-2.51,7.53-3.57,11.24-3.74,8.77-.4,11.4-2.19,14.18-5.87S284.75,432.88,282.91,430.75Z" style="fill:#ae7461"></path><path d="M130.13,407.2c1.32,0,35.42-12.72,47.59-13.61,8.62-.63,20.18,8.19,34.46,17,17.28,10.67,35.37,21.74,35.11,22.14-.47.72-12.56,18.6-12.56,18.6L186.32,427.6l-16.83,2.15C156.71,429.72,130.13,407.2,130.13,407.2Z" style="fill:#ae7461"></path><path d="M130.13,407.2s.13-.06.4-.15l1.21-.41,4.63-1.52,17.08-5.52,11.82-3.79a52.39,52.39,0,0,1,14.06-2.21c.64,0,1.26,0,1.91,0a12.31,12.31,0,0,1,1.92.38,33.83,33.83,0,0,1,3.67,1.36c2.42,1.05,4.8,2.29,7.2,3.6,1.19.66,2.39,1.35,3.58,2.06s2.36,1.49,3.55,2.24l7.22,4.61,24.44,15.61h0a63.09,63.09,0,0,0,9.66,6.22c3.25,1.71,6.87,1.87,10.14,1.84,1.66,0,3.24-.19,4.82-.27a18.37,18.37,0,0,0,4.44-.49c2.82-.61,5.37-1.43,7.71-2a30.34,30.34,0,0,1,6.4-1.16,8.86,8.86,0,0,1,4.73.88,6,6,0,0,1,2.19,2.07,6.42,6.42,0,0,1,.49.91s-.18-.31-.55-.87a6,6,0,0,0-2.2-2,8.69,8.69,0,0,0-4.65-.8,31.09,31.09,0,0,0-6.34,1.21c-2.33.63-4.87,1.47-7.71,2.1a18.89,18.89,0,0,1-4.51.52c-1.52.09-3.15.27-4.81.29a32.11,32.11,0,0,1-5.14-.25,15.79,15.79,0,0,1-5.2-1.59,62,62,0,0,1-9.74-6.25l0,0L208.13,408.3l-7.22-4.61c-1.19-.75-2.36-1.52-3.54-2.24s-2.38-1.39-3.57-2.05c-2.38-1.31-4.75-2.55-7.15-3.59a31.59,31.59,0,0,0-3.61-1.35,11,11,0,0,0-1.83-.37c-.62-.06-1.25,0-1.87-.06a52.66,52.66,0,0,0-14,2.16l-11.82,3.73-17.13,5.37-4.67,1.44-1.21.36Z" style="fill:#6f4439"></path><path d="M176.57,384.14c-1.48.11-20.17,1-20.17,1s17.49-1.44,18.18-2.43a1.86,1.86,0,0,0,.24-.56,2.54,2.54,0,0,0-1.9-2.95,42.84,42.84,0,0,0-9.81-1.21c-4.94-.17-9.25-.08-9.25-.08s-7.18-2.48-9.12-2.32c-4.06.36-25,2.06-25,2.06l-9.93,12.66s19.58,14.41,32.54,14.23a18.53,18.53,0,0,0,7.54-1.93c3.23-1.83,11.27-5.63,11.27-5.63s15.66-2.32,15.52-6.67c0,0,3.25-1.42,3.14-3.49A2.79,2.79,0,0,0,176.57,384.14Z" style="fill:#875244"></path><path d="M119.78,377.61s.21,0,.62-.08l1.8-.18,6.89-.62,10.83-.93,3.26-.28c.56,0,1.12-.1,1.71-.13a8.11,8.11,0,0,1,1.78.22,66.45,66.45,0,0,1,7.25,2.08h-.06c5.93.19,12.57-.48,19.54,1.42a2.84,2.84,0,0,1,1.68,2.2,2.3,2.3,0,0,1-.29,1.44,1.3,1.3,0,0,1-.7.41c-.23.07-.45.13-.68.18-1.8.39-3.64.61-5.5.85-3.73.45-7.57.82-11.49,1.15l0-.46,13.71-.66,4.12-.2,2-.1a4.49,4.49,0,0,1,2.1.27,2.75,2.75,0,0,1,1.51,1.52,3.86,3.86,0,0,1,.22,1.05,2.48,2.48,0,0,1-.21,1.08,4.43,4.43,0,0,1-1.33,1.6,9,9,0,0,1-1.74,1.05l.14-.22a2.84,2.84,0,0,1-1.12,2.13,9.32,9.32,0,0,1-2,1.27,26.5,26.5,0,0,1-4.2,1.61,66.16,66.16,0,0,1-8.44,1.89l.06,0c-3.74,1.78-7.34,3.49-10.69,5.28a15.27,15.27,0,0,1-5.26,1.92,20.67,20.67,0,0,1-2.68.34c-.9,0-1.77-.08-2.63-.12a38.17,38.17,0,0,1-9.32-2.47,74,74,0,0,1-7.49-3.44,112.12,112.12,0,0,1-10-6c-1.12-.76-2-1.36-2.54-1.77l-.64-.48c-.15-.11-.22-.16-.21-.17l.23.14.66.45,2.58,1.71c2.27,1.46,5.62,3.55,10,5.84a72.92,72.92,0,0,0,7.48,3.38,38,38,0,0,0,9.23,2.41c.85,0,1.71.11,2.58.1a22.29,22.29,0,0,0,2.63-.34,15,15,0,0,0,5.14-1.9c3.36-1.8,7-3.53,10.69-5.32h.06a64.93,64.93,0,0,0,8.38-1.89,25.77,25.77,0,0,0,4.12-1.59,9.17,9.17,0,0,0,1.85-1.2,2.46,2.46,0,0,0,1-1.78v-.15l.14-.07a5.77,5.77,0,0,0,2.82-2.41,1.84,1.84,0,0,0,.17-.86,3.51,3.51,0,0,0-.19-.91,2.24,2.24,0,0,0-1.25-1.26,3.86,3.86,0,0,0-1.89-.22l-2,.09-4.12.2-13.72.66,0-.47c3.92-.33,7.75-.7,11.47-1.14,1.86-.23,3.7-.45,5.46-.83l.64-.17a1.13,1.13,0,0,0,.47-.22,1.86,1.86,0,0,0,.22-1.16,2.38,2.38,0,0,0-1.42-1.85,26,26,0,0,0-5-1c-1.68-.2-3.34-.31-5-.37l-9.35-.1h-.07a69.5,69.5,0,0,0-7.19-2.1,7.94,7.94,0,0,0-1.71-.22c-.56,0-1.14.08-1.7.12l-3.25.26-10.84.84-6.9.52-1.81.12C120,377.61,119.78,377.61,119.78,377.61Z" style="fill:#56352e"></path><path d="M177,390.46a4.07,4.07,0,0,1-1,.14l-2.63.22c-2.22.17-5.29.42-8.67.74s-6.45.57-8.68.71c-1.11.07-2,.12-2.63.14a3.82,3.82,0,0,1-1,0,3.85,3.85,0,0,1,.95-.17l2.63-.28,8.66-.86c3.38-.31,6.46-.51,8.69-.6,1.11,0,2-.06,2.64-.06A3.72,3.72,0,0,1,177,390.46Z" style="fill:#56352e"></path><path d="M161.77,396.7a50,50,0,0,1-6.65,1.27c-1.84.31-3.49.65-4.68.91a10,10,0,0,1-1.94.39,23.88,23.88,0,0,1,6.54-1.76c1.85-.32,3.53-.53,4.75-.67A8.35,8.35,0,0,1,161.77,396.7Z" style="fill:#6f4439"></path><path d="M168.34,370.44l-28.1,5.24-1.48-27.86-7.5-24.61c.3-.28-12.42,8.69-12.86,24.06-.28,9.84-.15,21.64.08,26.12s.76,14,4.2,17.08,9.61,4.72,15.66,3.7a148.74,148.74,0,0,0,15.89-4l19.22-6.12Z" style="fill:#ae7461"></path><path d="M168.34,370.44l.35.87c.23.6.57,1.46,1,2.59L173.56,384l0,.12-.12,0-16.24,5.23c-3.16,1-6.58,2.07-10.23,3-1.82.48-3.71.94-5.65,1.35a32.91,32.91,0,0,1-6.05.88,21.63,21.63,0,0,1-6.35-.74,16.18,16.18,0,0,1-6-2.92,7.66,7.66,0,0,1-2.12-2.72A20.07,20.07,0,0,1,119.7,385a45,45,0,0,1-1.13-7c-.44-4.77-.5-9.69-.55-14.7s0-10.14.13-15.35a29.61,29.61,0,0,1,3.79-14.19,36.53,36.53,0,0,1,6.53-8.47c.42-.41.85-.8,1.29-1.19l.68-.56.34-.27.18-.13.09-.06,0,0,0,0,.07,0h.06c.14-.14.32.51.16.4l.06-.23L139,347.76v.05c.54,10.55,1,19.95,1.43,27.86l-.18-.15,20.7-3.77,5.53-1,1.42-.25.47-.07s-.17.05-.5.11l-1.43.29-5.55,1.07-20.59,3.92-.17,0v-.19c-.44-7.91-1-17.3-1.53-27.85v.05c-2.34-7.63-4.86-15.89-7.53-24.61l.14-.15s.08.19.08.1a.6.6,0,0,1,0,.11c.05.13.09.06.08.07h0l0,0-.08.06-.17.13-.34.26-.66.55c-.43.38-.86.77-1.27,1.17-.83.8-1.63,1.65-2.39,2.54a35.21,35.21,0,0,0-4.05,5.83,29.19,29.19,0,0,0-3.73,14c-.13,5.2-.16,10.32-.13,15.33s.1,9.91.53,14.66a46.15,46.15,0,0,0,1.11,6.93c.6,2.18,1.37,4.44,3.13,5.79a15.92,15.92,0,0,0,5.81,2.85,21.11,21.11,0,0,0,6.23.73,31.8,31.8,0,0,0,6-.85c1.94-.41,3.81-.86,5.64-1.33,3.64-.94,7.05-1.95,10.22-3L173.41,384l-.07.15L169.62,374l-1-2.64C168.44,370.76,168.34,370.44,168.34,370.44Z" style="fill:#6f4439"></path><path d="M114.32,359.55l29.47-.26-6.6-44.9s-9.19-.68-14.25,9.67C116.81,336.59,114.32,359.55,114.32,359.55Z" style="fill:#5EA7E7"></path><path d="M140.8,375.68c0,.07-.61.18-1.53.54a10.34,10.34,0,0,0-3.25,2,10.23,10.23,0,0,0-2.25,3.09,12.49,12.49,0,0,1-.65,1.49,3.57,3.57,0,0,1,.34-1.62,8.92,8.92,0,0,1,5.7-5.31A3.38,3.38,0,0,1,140.8,375.68Z" style="fill:#6f4439"></path><path d="M168,370.25a78.64,78.64,0,0,1,6.63-5.85c2.32-1.64,5.48-6.58,5.48-6.58a3.25,3.25,0,0,1,1.4,3.05c-.37,1.85-3.6,7.08-3.26,7.95a4.85,4.85,0,0,0,3.15,1.83c.51-.13,12.78-2.64,13.56-1.6s.8,2.79-.45,3.22-8.16,1-8,1.89,8.91.45,9.32,1.58a2,2,0,0,1-1.38,2.76c-1.31.18-7.86.52-7.81,1.31s7.06.09,7.5.8-.44,2.13-1.24,2.19-9.34.59-9.48,1.71,4.61,2.29,5.13,2.78-.66,2.08-2.73,1.39c-.67-.22-15.47-3.77-17.13-4.46S168,370.25,168,370.25Z" style="fill:#ae7461"></path><path d="M114.32,359.55a1.88,1.88,0,0,1,.54-.06l1.54-.05,5.68-.13,18.75-.23,2.59,0-.24.23c0-6.69-.05-12.64-.07-17,0-2.1,0-3.82,0-5.07,0-.56,0-1,0-1.37a2.2,2.2,0,0,1,0-.48,1.74,1.74,0,0,1,0,.47c0,.37,0,.82.06,1.37,0,1.26.06,3,.11,5.08.06,4.36.14,10.31.23,17v.23h-.24l-2.59,0-18.75.1-5.68,0-1.54,0A2.77,2.77,0,0,1,114.32,359.55Z" style="fill:#263238"></path><path d="M242.93,387.1c.3,0,.77.15,2.17,2.56a15.87,15.87,0,0,0,4.65,4.39s7.11,3.62,9.46,4.66,4.57,1.68,4.7-.66-1.16-3.41-5.54-5l-2-1.94,2.13-.7,7.25,1.7s3.25,6.85,4.7,6.83,1.51-1.14,1.51-1.14l1-.71-3.13-10-8.69-5.71L250,375.62l-8.31-2.31-5.89,14Z" style="fill:#ae7461"></path><path d="M258.86,379.88a5,5,0,0,1,.78.45l2.2,1.38,8.07,5.2.06,0,0,.07c.92,2.91,2,6.28,3.17,10l0,.16-.14.1c-.3.22-.64.47-1,.71l.1-.18a1.46,1.46,0,0,1-.81,1.17,2.1,2.1,0,0,1-.68.19,1.16,1.16,0,0,1-.76-.14,6.94,6.94,0,0,1-1.78-2,44.83,44.83,0,0,1-2.66-4.79l.18.14-7.25-1.7h.14l-1.78.59-.35.11.1-.45c.69.66,1.36,1.31,2,1.94l-.1-.05a24.31,24.31,0,0,1,3.19,1.37,4.4,4.4,0,0,1,2.39,2.49,4.28,4.28,0,0,1,.09,1.74,2.18,2.18,0,0,1-.31.86,1.66,1.66,0,0,1-.77.57,3.39,3.39,0,0,1-1.71-.05,12.17,12.17,0,0,1-1.51-.51c-3.75-1.76-7.12-3.52-10.17-5h0a16.92,16.92,0,0,1-4.1-3.61c-.52-.67-.86-1.39-1.27-2a8.3,8.3,0,0,0-.63-.86c-.22-.25-.46-.5-.72-.51h0l-5.25.07H236.3a2.49,2.49,0,0,1-.48,0,2,2,0,0,1,.47-.06l1.38-.07,5.25-.2h0a1.43,1.43,0,0,1,.93.6,8.49,8.49,0,0,1,.67.88c.43.62.78,1.33,1.29,2a16.77,16.77,0,0,0,4,3.47h0c3.05,1.46,6.45,3.2,10.17,4.92a5.14,5.14,0,0,0,2.87.54c.87-.26.87-1.61.64-2.53a3.91,3.91,0,0,0-2.13-2.18,27.33,27.33,0,0,0-3.12-1.33l0,0,0,0c-.67-.64-1.35-1.28-2-1.94l-.32-.31.42-.14.35-.11,1.78-.59.08,0h.07l7.25,1.72.12,0,.06.11a42,42,0,0,0,2.61,4.74,6.53,6.53,0,0,0,1.6,1.86c.22.17.67.07,1-.06a1,1,0,0,0,.55-.75v-.13l.09-.06,1-.7-.09.26c-1.14-3.72-2.18-7.1-3.08-10l.08.11-8-5.35-2.15-1.46A6.83,6.83,0,0,1,258.86,379.88Z" style="fill:#6f4439"></path><path d="M256.76,446.93c-2.61-3.75-7.35-5.51-11.9-5.84s-9.11.55-13.66,1-9.34.35-13.42-1.7c-2.56-1.29-4.71-3.29-7.31-4.47-4-1.81-12-.36-18.75,5a49.88,49.88,0,0,1-14.95-4.49l-3.26,23.35c18.55,2.52,42,5.64,62.72,10.71,2.83.69,10,2.47,13,2.4s7.57.29,9.39-2c2-2.47,2.42-6.25,2.53-9.41A26.61,26.61,0,0,0,256.76,446.93Z" style="fill:#455a64"></path><path d="M103,390.33S64.28,364,51.87,382.14s-1,36.16,4.28,41.18c10.69,10.12,48.12,25.89,70.55,32.37s50.69,5.84,50.69,5.84l11.19-23.26S116.42,401.6,103,390.33Z" style="fill:#263238"></path><path d="M142.71,459.12a3.74,3.74,0,0,1-.71-.1l-2-.4c-1.74-.36-4.26-.89-7.36-1.59-6.21-1.4-14.77-3.45-24-6.37-4.63-1.48-9-3.06-12.89-4.63-1.94-.81-3.8-1.56-5.49-2.36s-3.28-1.53-4.71-2.24-2.68-1.41-3.8-2-2.06-1.15-2.82-1.61l-1.75-1.06a4.06,4.06,0,0,1-.59-.4,3.09,3.09,0,0,1,.64.31l1.79,1c.78.44,1.73,1,2.86,1.53s2.38,1.27,3.82,1.94,3,1.44,4.72,2.18,3.55,1.52,5.49,2.32c3.91,1.54,8.26,3.1,12.88,4.58,9.24,2.91,17.78,5,24,6.49l7.33,1.74,2,.48A5.82,5.82,0,0,1,142.71,459.12Z" style="fill:#455a64"></path></g></svg>
